<svg id="Layer_1" style="enable-background:new 0 0 190 73;" version="1.1" viewBox="0 0 190 73" x="0px" xml:space="preserve" xmlns="http://www.w3.org/2000/svg" xmlns:xlink="http://www.w3.org/1999/xlink" y="0px">
<style type="text/css">
	.st0{fill:#1D1D1B;}
	.st1{fill:#FFFFFF;}
</style>
<path class="st0" d="M0.1,4.8c0-2.8,1.7-4.7,4.2-4.7c2.4,0,4.2,1.9,4.2,4.7v11.4h0.1c1.7-2.2,5-2.9,7.6-2.9
	c6.6,0,11.5,4.2,11.5,11.3v16.1c0,2.8-1.7,4.7-4.2,4.7c-2.4,0-4.2-1.9-4.2-4.7V26c0-3.9-2.4-5.8-5.5-5.8c-3.4,0-5.4,2.5-5.4,5.8
	v14.6c0,2.8-1.7,4.7-4.2,4.7c-2.4,0-4.2-1.9-4.2-4.7V4.8H0.1z"></path>
<path class="st0" d="M62.5,29.5c0,8.7-6,16.1-15,16.1s-15-7.4-15-16.1c0-8.5,6.2-16.3,15-16.3C56.3,13.3,62.5,21,62.5,29.5z
	 M40.8,29.5c0,4,2.1,8.4,6.6,8.4s6.6-4.4,6.6-8.4s-2-8.6-6.6-8.6S40.8,25.5,40.8,29.5z"></path>
<path class="st0" d="M66,20.9c-0.6-1.7-0.9-2.7-0.9-4c0-1.9,1.7-3.4,4.2-3.4c2,0,3.5,1.3,4,3.3l4.8,16h0.1l4.9-15.7
	c0.6-2.3,1.8-3.7,4.3-3.7c2.4,0,3.6,1.4,4.3,3.7l4.9,15.7h0.1l4.8-16c0.5-2,1.9-3.3,4-3.3c2.4,0,4.2,1.5,4.2,4.1
	c0,0.9-0.4,1.9-0.8,3.1L101.7,41c-0.9,2.4-2.3,4.3-5.1,4.3c-2.6,0-4.1-1.5-4.8-3.9l-4.3-13.5h-0.1l-4.3,13.5
	c-0.8,2.4-2.3,3.9-4.8,3.9c-2.7,0-4.2-1.8-5.1-4.3L66,20.9z"></path>
<path class="st0" d="M120.4,32.2c0.6,4.1,4,6.1,7.9,6.1c4.3,0,7.3-3.4,9.5-3.4c1.8,0,3.4,1.8,3.4,3.6c0,3.6-7.5,7.1-13.7,7.1
	c-9.4,0-15.7-6.9-15.7-16.1c0-8.5,6.2-16.3,15-16.3c9.1,0,15.1,8.3,15.1,15.3c0,2.5-1.1,3.7-3.7,3.7
	C138.2,32.2,120.4,32.2,120.4,32.2z M133.6,26.7c-0.5-3.7-2.8-6.4-6.7-6.4c-3.7,0-6.2,2.9-6.6,6.4H133.6z"></path>
<path class="st0" d="M163.7,23c-1.6,0-4.8-2.4-7.5-2.4c-1.5,0-2.9,0.7-2.9,2.3c0,3.9,14.6,3.3,14.6,12.9c0,5.6-4.7,9.8-11.9,9.8
	c-4.7,0-11.7-2.7-11.7-6.5c0-1.3,1.3-3.7,3.6-3.7c3.3,0,4.7,2.9,8.7,2.9c2.6,0,3.3-0.8,3.3-2.4c0-3.8-14.6-3.3-14.6-12.9
	c0-5.8,4.7-9.8,11.4-9.8c4.1,0,10.5,1.9,10.5,6.1C167.2,21.2,165.7,23,163.7,23z"></path>
<path class="st0" d="M175.3,21.3h-1.9c-2.3,0-3.7-1.4-3.7-3.7c0-2.1,1.6-3.7,3.7-3.7h1.9v-5c0-2.8,1.7-4.7,4.2-4.7
	c2.4,0,4.2,1.9,4.2,4.7v5h2.4c2.2,0,4,1,4,3.7c0,2.6-1.9,3.7-4,3.7h-2.4v19.3c0,2.8-1.7,4.7-4.2,4.7c-2.4,0-4.2-1.9-4.2-4.7V21.3z"></path>
<g>
<path class="st1" d="M99.7,59.7c0-1.7-1.2-2.4-2.2-2.4c-1,0-2.2,0.7-2.2,2.4V65c0,0.5-0.3,0.9-0.8,0.9c-0.5,0-0.8-0.3-0.8-0.9V52.5
		c0-0.5,0.3-0.9,0.8-0.9c0.5,0,0.8,0.3,0.8,0.9v4.7l0,0C96,56.3,97,56,97.9,56c1.5,0,3.3,1,3.3,3.7V65c0,0.5-0.3,0.9-0.8,0.9
		s-0.8-0.3-0.8-0.9V59.7z"></path>
<path class="st1" d="M107.7,56c2.7,0,4.2,2.4,4.2,5c0,2.6-1.5,5-4.2,5c-2.7,0-4.2-2.4-4.2-5C103.4,58.4,104.9,56,107.7,56z
		 M107.7,64.5c2,0,2.6-1.9,2.6-3.6c0-1.6-0.7-3.6-2.6-3.6s-2.6,1.9-2.6,3.6C105,62.6,105.7,64.5,107.7,64.5z"></path>
<path class="st1" d="M121.9,65.1c0,2.9-1.7,4.6-4.3,4.6c-1.6,0-3.7-1-3.7-1.8c0-0.3,0.2-0.7,0.7-0.7c0.7,0,1.4,1.1,3.1,1.1
		c2,0,2.6-1.6,2.6-3v-0.8h0c-0.5,0.8-1.4,1.4-2.4,1.4c-2.7,0-4.2-2.4-4.2-5c0-2.6,1.5-5,4.2-5c1,0,2,0.6,2.4,1.2h0v-0.4
		c0-0.6,0.4-0.8,0.8-0.8c0.3,0,0.7,0.2,0.7,0.8V65.1z M117.9,64.5c2,0,2.6-1.9,2.6-3.6c0-1.6-0.7-3.6-2.6-3.6s-2.6,1.9-2.6,3.6
		C115.2,62.6,115.9,64.5,117.9,64.5z"></path>
<path class="st1" d="M125.6,61.6c0,1.7,1,3,2.8,3c2.1,0,2.7-1.3,3.3-1.3c0.3,0,0.6,0.3,0.6,0.7c0,0.8-2,2-3.9,2
		c-3.1,0-4.4-2.4-4.4-5c0-2.6,1.6-5,4.3-5c2.6,0,4.1,2.4,4.1,4.7c0,0.6-0.2,0.9-0.9,0.9H125.6z M130.9,60.3c0-1.4-0.8-3-2.6-3
		c-2-0.1-2.7,1.5-2.7,3H130.9z"></path>
<path class="st1" d="M137.5,56c1.3,0,3.2,0.7,3.2,1.7c0,0.3-0.2,0.7-0.7,0.7c-0.7,0-1-1-2.5-1c-0.9,0-1.7,0.4-1.7,1.2
		c0,1.7,5.1,1.5,5.1,4.3c0,2-1.7,3-3.5,3c-2,0-3.6-1-3.6-1.8c0-0.4,0.3-0.7,0.7-0.7c0.7,0,1.3,1.2,3,1.2c1.2,0,1.9-0.7,1.9-1.3
		c0-1.9-5.1-1.8-5.1-4.5C134.2,56.9,135.9,56,137.5,56z"></path>
<path class="st1" d="M146.9,56c1.6,0,2.6,0.6,2.6,1.2c0,0.3-0.3,0.7-0.7,0.7c-0.6,0-0.9-0.5-1.9-0.5c-2,0-2.8,1.9-2.8,3.6
		c0,1.6,0.8,3.6,2.8,3.6c1.1,0,1.4-0.5,1.9-0.5c0.4,0,0.6,0.2,0.6,0.7c0,0.6-0.9,1.3-2.5,1.3c-2.9,0-4.3-2.4-4.3-5
		C142.6,58.4,144,56,146.9,56z"></path>
<path class="st1" d="M157.5,59.7c0-1.7-1.2-2.4-2.2-2.4s-2.2,0.7-2.2,2.4V65c0,0.5-0.3,0.9-0.8,0.9s-0.8-0.3-0.8-0.9V52.5
		c0-0.5,0.3-0.9,0.8-0.9s0.8,0.3,0.8,0.9v4.7l0,0c0.7-0.9,1.7-1.3,2.7-1.3c1.5,0,3.3,1,3.3,3.7V65c0,0.5-0.3,0.9-0.8,0.9
		s-0.8-0.3-0.8-0.9V59.7z"></path>
<path class="st1" d="M165.5,56c2.7,0,4.2,2.4,4.2,5c0,2.6-1.5,5-4.2,5c-2.7,0-4.2-2.4-4.2-5C161.3,58.4,162.8,56,165.5,56z
		 M165.5,64.5c2,0,2.6-1.9,2.6-3.6c0-1.6-0.7-3.6-2.6-3.6c-2,0-2.6,1.9-2.6,3.6C162.9,62.6,163.6,64.5,165.5,64.5z"></path>
<path class="st1" d="M175.7,56c2.7,0,4.2,2.4,4.2,5c0,2.6-1.5,5-4.2,5c-2.7,0-4.2-2.4-4.2-5C171.5,58.4,173,56,175.7,56z
		 M175.7,64.5c2,0,2.6-1.9,2.6-3.6c0-1.6-0.7-3.6-2.6-3.6c-2,0-2.6,1.9-2.6,3.6C173.1,62.6,173.8,64.5,175.7,64.5z"></path>
<path class="st1" d="M183.7,65c0,0.5-0.3,0.9-0.8,0.9c-0.5,0-0.8-0.3-0.8-0.9V52.5c0-0.5,0.3-0.9,0.8-0.9c0.5,0,0.8,0.3,0.8,0.9V65
		z"></path>
</g>
</svg>