<svg width="947" height="1053" viewBox="0 0 947 1053" fill="none" xmlns="http://www.w3.org/2000/svg">
<path d="M413.727 15.8131L61.0786 216.45C23.3196 237.933 0 278.025 0 321.46V731.54C0 774.975 23.3196 815.067 61.0786 836.55L413.727 1037.19C450.785 1058.27 496.215 1058.27 533.273 1037.19L885.921 836.55C923.68 815.067 947 774.975 947 731.54V321.46C947 278.025 923.68 237.933 885.921 216.45L533.273 15.8131C496.215 -5.27103 450.785 -5.27102 413.727 15.8131Z" fill="#44C9F6"/>
<g filter="url(#filter0_d_13_10)">
<path fill-rule="evenodd" clip-rule="evenodd" d="M544.001 959.126C505.34 981.447 442.66 981.447 403.999 959.126L102.995 785.342C83.6651 774.181 74 759.554 74 744.927V622.927C74 637.554 83.6651 652.182 102.995 663.342L403.999 837.127C442.66 859.447 505.34 859.447 544.001 837.127L845.005 663.342C864.335 652.182 874 637.554 874 622.927V744.927C874 759.554 864.335 774.181 845.005 785.342L544.001 959.126Z" fill="white"/>
<path d="M403.999 837.127C442.66 859.447 505.34 859.447 544.001 837.127L845.005 663.342C864.335 652.182 874 637.554 874 622.927C874 608.3 864.335 593.685 845.005 582.525L544.001 408.74C505.34 386.42 442.66 386.42 403.999 408.74L102.995 582.525C83.6651 593.685 74 608.3 74 622.927C74 637.554 83.6651 652.182 102.995 663.342L403.999 837.127Z" fill="#44C9F6"/>
</g>
<g filter="url(#filter1_d_13_10)">
<path fill-rule="evenodd" clip-rule="evenodd" d="M544.001 810.126C505.34 832.447 442.66 832.447 403.999 810.126L102.995 636.342C83.6651 625.181 74 610.554 74 595.927V473.927C74 488.554 83.6651 503.182 102.995 514.342L403.999 688.127C442.66 710.447 505.34 710.447 544.001 688.127L845.005 514.342C864.335 503.182 874 488.554 874 473.927V595.927C874 610.554 864.335 625.181 845.005 636.342L544.001 810.126Z" fill="white"/>
<path d="M403.999 688.127C442.66 710.447 505.34 710.447 544.001 688.127L845.005 514.342C864.335 503.182 874 488.554 874 473.927C874 459.3 864.335 444.685 845.005 433.525L544.001 259.74C505.34 237.42 442.66 237.42 403.999 259.74L102.995 433.525C83.6651 444.685 74 459.3 74 473.927C74 488.554 83.6651 503.182 102.995 514.342L403.999 688.127Z" fill="#44C9F6"/>
</g>
<g filter="url(#filter2_d_13_10)">
<path fill-rule="evenodd" clip-rule="evenodd" d="M544.001 660.126C505.34 682.447 442.66 682.447 403.999 660.126L102.995 486.342C83.6651 475.181 74 460.554 74 445.927V323.927C74 338.554 83.6651 353.182 102.995 364.342L403.999 538.127C442.66 560.447 505.34 560.447 544.001 538.127L606.604 501.982L845.005 364.342C864.335 353.182 874 338.554 874 323.927V445.927C874 460.554 864.335 475.181 845.005 486.342L544.001 660.126Z" fill="white"/>
<path d="M606.604 501.982L307.878 165.236L102.995 283.525C83.6651 294.685 74 309.3 74 323.927C74 338.554 83.6651 353.182 102.995 364.342L403.999 538.127C442.66 560.447 505.34 560.447 544.001 538.127L606.604 501.982Z" fill="white"/>
<path d="M307.878 165.236L606.604 501.982L845.005 364.342C864.335 353.182 874 338.554 874 323.927C874 309.3 864.335 294.685 845.005 283.525L544.001 109.74C505.34 87.4198 442.66 87.4198 403.999 109.74L307.878 165.236Z" fill="#44C9F6"/>
</g>
<path d="M550.436 932.022L550.436 940.254C550.436 940.614 550.301 940.884 550.062 941.022C549.823 941.16 549.688 941.046 549.688 940.686L549.688 932.454C549.688 932.094 549.823 931.824 550.062 931.686C550.301 931.548 550.436 931.662 550.436 932.022ZM552.339 936.443C552.339 937.607 552.744 938.753 553.908 938.081C555.072 937.409 555.477 935.795 555.477 934.631C555.477 933.467 555.072 932.321 553.908 932.993C552.744 933.665 552.339 935.279 552.339 936.443ZM556.288 934.163C556.288 935.963 555.498 937.883 553.908 938.801C552.318 939.719 551.528 938.711 551.528 936.911C551.528 935.303 552.287 933.209 553.908 932.273C555.54 931.331 556.288 932.555 556.288 934.163ZM561.039 929.092L561.039 928.708C561.039 928.348 561.174 928.078 561.413 927.94C561.652 927.802 561.787 927.916 561.787 928.276L561.787 933.88C561.787 935.86 560.592 937.462 559.376 938.164C558.274 938.8 557.256 938.668 557.256 938.236C557.256 937.984 557.37 937.726 557.63 937.576C557.931 937.402 558.43 937.918 559.303 937.414C560.187 936.904 561.039 935.824 561.039 934.384L561.039 933.712L561.018 933.724C560.696 934.558 560.145 935.2 559.48 935.584C557.89 936.502 557.1 935.494 557.1 933.694C557.1 932.086 557.859 929.992 559.459 929.068C560.114 928.69 560.706 928.768 561.018 929.104L561.039 929.092ZM557.911 933.226C557.911 934.39 558.316 935.536 559.48 934.864C560.488 934.282 561.049 932.914 561.049 932.026L561.049 930.802C561.049 929.902 560.488 929.194 559.48 929.776C558.316 930.448 557.911 932.062 557.911 933.226ZM563.685 929.892C563.685 931.056 564.091 932.202 565.254 931.53C566.418 930.858 566.824 929.244 566.824 928.08C566.824 926.916 566.418 925.77 565.254 926.442C564.091 927.114 563.685 928.728 563.685 929.892ZM567.634 927.612C567.634 929.412 566.844 931.332 565.254 932.25C563.664 933.168 562.875 932.16 562.875 930.36C562.875 928.752 563.633 926.658 565.254 925.722C566.886 924.78 567.634 926.004 567.634 927.612ZM571.223 928.252L571.223 920.02C571.223 919.66 571.359 919.39 571.598 919.252C571.837 919.114 571.972 919.228 571.972 919.588L571.972 922.792L572.003 922.774C572.429 921.892 572.907 921.304 573.551 920.932C575.152 920.008 575.91 921.226 575.91 922.834C575.91 924.634 575.121 926.554 573.531 927.472C572.886 927.844 572.335 927.838 572.003 927.406L571.972 927.424L571.972 927.82C571.972 928.18 571.837 928.45 571.598 928.588C571.359 928.726 571.223 928.612 571.223 928.252ZM571.961 925.114C571.961 926.278 572.367 927.424 573.531 926.752C574.694 926.08 575.1 924.466 575.1 923.302C575.1 922.138 574.694 920.992 573.531 921.664C572.367 922.336 571.961 923.95 571.961 925.114ZM578.172 924.552L576.478 919.89C576.447 919.812 576.437 919.734 576.437 919.662C576.437 919.458 576.572 919.188 576.78 919.068C576.988 918.948 577.102 919.026 577.175 919.236L578.515 923.094L578.536 923.082L579.877 917.676C579.95 917.382 580.064 917.172 580.272 917.052C580.48 916.932 580.615 917.046 580.615 917.25C580.615 917.322 580.604 917.412 580.573 917.526L578.183 926.874C578.1 927.21 577.985 927.42 577.778 927.54C577.549 927.672 577.435 927.546 577.435 927.378C577.435 927.27 577.455 927.138 577.497 926.994L578.172 924.552ZM583.92 920.922L583.92 912.69C583.92 912.33 584.055 912.06 584.294 911.922C584.533 911.784 584.668 911.898 584.668 912.258L584.668 915.462L584.699 915.444C585.125 914.562 585.603 913.974 586.247 913.602C587.848 912.678 588.606 913.896 588.606 915.504C588.606 917.304 587.817 919.224 586.227 920.142C585.582 920.514 585.032 920.508 584.699 920.076L584.668 920.094L584.668 920.49C584.668 920.85 584.533 921.12 584.294 921.258C584.055 921.396 583.92 921.282 583.92 920.922ZM584.657 917.784C584.657 918.948 585.063 920.094 586.227 919.422C587.391 918.75 587.796 917.136 587.796 915.972C587.796 914.808 587.391 913.662 586.227 914.334C585.063 915.006 584.657 916.62 584.657 917.784ZM590.442 914.048L590.442 917.156C590.442 917.516 590.307 917.786 590.068 917.924C589.829 918.062 589.694 917.948 589.694 917.588L589.694 912.164C589.694 911.804 589.829 911.534 590.068 911.396C590.307 911.258 590.442 911.372 590.442 911.732L590.442 912.332L590.463 912.32C590.733 911.456 591.211 910.736 591.679 910.466C592.032 910.262 592.178 910.406 592.178 910.646C592.178 910.886 592.032 911.102 591.669 911.408C591.253 911.756 590.442 912.632 590.442 914.048ZM596.921 911.087L593.502 913.061C593.533 914.159 594.188 914.825 595.144 914.273C596.329 913.589 596.641 912.425 596.994 912.221C597.202 912.101 597.347 912.101 597.347 912.437C597.347 912.821 596.485 914.219 595.196 914.963C593.429 915.983 592.692 914.753 592.692 913.145C592.692 911.537 593.513 909.407 595.071 908.507C596.63 907.607 597.43 908.657 597.43 910.265C597.43 910.493 597.368 910.829 596.921 911.087ZM593.502 912.341L596.62 910.541C596.589 909.491 596.069 908.651 595.061 909.233C594.053 909.815 593.533 911.255 593.502 912.341ZM600.46 911.132C601.136 910.742 601.375 910.268 601.583 910.148C601.718 910.07 601.895 910.112 601.895 910.316C601.895 910.844 601.198 911.498 600.46 911.924C598.902 912.824 598.081 911.642 598.081 910.034C598.081 908.426 598.985 906.248 600.554 905.342C601.261 904.934 601.926 904.862 601.926 905.222C601.926 905.498 601.801 905.774 601.51 905.942C601.313 906.056 601.136 905.798 600.46 906.188C599.4 906.8 598.891 908.474 598.891 909.494C598.891 910.838 599.484 911.696 600.46 911.132ZM603.727 905.97L603.727 909.486C603.727 909.846 603.592 910.116 603.353 910.254C603.114 910.392 602.979 910.278 602.979 909.918L602.979 901.686C602.979 901.326 603.114 901.056 603.353 900.918C603.592 900.78 603.727 900.894 603.727 901.254L603.727 904.374L603.748 904.362C604.028 903.732 604.486 903.072 605.192 902.664C606.169 902.1 607.177 902.274 607.177 903.798L607.177 907.494C607.177 907.854 607.042 908.124 606.803 908.262C606.564 908.4 606.429 908.286 606.429 907.926L606.429 904.206C606.429 903.318 605.909 903.042 605.078 903.522C604.382 903.924 603.727 904.878 603.727 905.97ZM609.486 900.977L609.486 906.161C609.486 906.521 609.351 906.791 609.112 906.929C608.873 907.067 608.738 906.953 608.738 906.593L608.738 901.409L608.249 901.691C608 901.835 607.927 901.661 607.927 901.517C607.927 901.373 608 901.115 608.249 900.971L608.738 900.689L608.738 899.285C608.738 898.913 608.873 898.643 609.112 898.505C609.351 898.367 609.486 898.481 609.486 898.853L609.486 900.257L609.974 899.975C610.224 899.831 610.296 900.005 610.296 900.149C610.296 900.293 610.224 900.551 609.974 900.695L609.486 900.977ZM611.13 905.212C611.13 904.912 611.348 904.534 611.608 904.384C611.868 904.234 612.086 904.36 612.086 904.66C612.086 904.96 611.868 905.338 611.608 905.488C611.348 905.638 611.13 905.512 611.13 905.212ZM615.082 901.982L616.422 896.576C616.495 896.282 616.609 896.072 616.817 895.952C617.025 895.832 617.16 895.946 617.16 896.15C617.16 896.222 617.15 896.312 617.119 896.426L615.456 902.942C615.383 903.236 615.206 903.41 615.071 903.488C614.936 903.566 614.76 903.596 614.687 903.386L613.024 898.79C612.993 898.712 612.982 898.634 612.982 898.562C612.982 898.358 613.118 898.088 613.325 897.968C613.533 897.848 613.648 897.926 613.72 898.136L615.061 901.994L615.082 901.982ZM617.483 901.544C617.483 901.244 617.702 900.866 617.961 900.716C618.221 900.566 618.439 900.692 618.439 900.992C618.439 901.292 618.221 901.67 617.961 901.82C617.702 901.97 617.483 901.844 617.483 901.544ZM623.555 893.01L623.555 889.806C623.555 889.446 623.69 889.176 623.929 889.038C624.168 888.9 624.303 889.014 624.303 889.374L624.303 897.606C624.303 897.966 624.168 898.236 623.929 898.374C623.69 898.512 623.555 898.398 623.555 898.038L623.555 897.642L623.524 897.66C623.191 898.476 622.64 899.118 621.996 899.49C620.406 900.408 619.616 899.4 619.616 897.6C619.616 895.992 620.375 893.898 621.975 892.974C622.62 892.602 623.098 892.638 623.524 893.028L623.555 893.01ZM620.427 897.132C620.427 898.296 620.832 899.442 621.996 898.77C623.16 898.098 623.555 896.49 623.555 895.326C623.555 894.162 623.16 893.01 621.996 893.682C620.863 894.336 620.427 895.968 620.427 897.132Z" fill="black"/>
<path d="M563.405 575.533C568.809 572.413 573.133 573.661 573.133 575.481C573.133 576.781 572.367 577.899 571.691 578.289C570.34 579.069 568.674 575.923 563.36 578.991C556.605 582.891 552.958 593.369 552.958 600.909C552.958 608.553 556.2 613.909 563.946 609.437C569.575 606.187 571.286 601.559 572.457 600.883C573.268 600.415 573.808 600.675 573.808 601.975C573.808 603.587 569.665 609.567 563.766 612.973C553.948 618.641 549.445 612.817 549.445 602.937C549.445 593.213 553.948 580.993 563.405 575.533ZM580.328 595.039L578.211 602.917C577.806 604.087 577.536 605.023 576.41 605.673C575.464 606.219 574.969 605.829 574.969 605.049C574.969 604.633 575.104 603.931 575.284 603.307L585.597 565.425C586.002 563.995 586.497 562.201 588.118 561.265C589.74 560.329 590.235 561.551 590.64 562.513L600.953 588.487C601.133 588.903 601.268 589.449 601.268 589.865C601.268 590.645 600.773 591.607 599.827 592.153C598.701 592.803 598.341 592.231 598.026 591.477L595.909 586.043L580.328 595.039ZM594.828 583.235L588.163 566.127L588.073 566.179L581.408 590.983L594.828 583.235ZM620.691 573.607L627.987 540.691C628.392 538.897 629.067 537.623 630.373 536.869C631.814 536.037 633.346 535.673 633.661 537.883L637.489 565.313C637.624 566.171 637.939 567.965 637.939 568.433C637.939 569.837 637.083 570.643 636.408 571.033C635.237 571.709 634.877 571.033 634.697 569.785L630.689 540.743L630.599 540.795L622.583 576.519C622.087 578.677 621.637 579.561 620.646 580.133C619.7 580.679 619.34 580.107 619.025 579.145L610.784 552.339L610.694 552.391L606.686 585.957C606.506 587.413 606.145 588.505 604.975 589.181C604.299 589.571 603.443 589.753 603.443 588.349C603.443 587.881 603.759 585.723 603.894 584.709L607.722 552.859C608.037 550.285 609.568 548.881 611.009 548.049C612.315 547.295 613.081 547.737 613.486 549.063L620.601 573.659L620.691 573.607ZM645.684 551.221L645.684 563.285C645.684 564.845 645.099 566.015 644.063 566.613C643.027 567.211 642.442 566.717 642.442 565.157L642.442 532.189C642.442 530.941 642.937 529.927 644.468 529.043L652.169 524.597C659.464 520.385 662.076 525.429 662.076 530.005C662.076 536.141 658.744 543.681 651.358 547.945L645.684 551.221ZM645.684 531.773L645.684 547.789L651.628 544.357C656.762 541.393 658.834 535.933 658.834 532.189C658.834 528.445 656.762 525.377 651.628 528.341L645.684 531.773ZM665.794 541.171L665.794 518.811C665.794 517.251 666.379 516.081 667.415 515.483C668.451 514.885 669.036 515.379 669.036 516.939L669.036 538.831C669.036 545.643 673.314 546.293 677.818 543.693C682.321 541.093 686.599 535.503 686.599 528.691L686.599 506.799C686.599 505.239 687.185 504.069 688.22 503.471C689.256 502.873 689.842 503.367 689.842 504.927L689.842 527.287C689.842 535.815 684.032 543.537 677.818 547.125C671.603 550.713 665.794 549.699 665.794 541.171ZM702.542 532.85C697.228 535.918 693.715 535.554 693.715 533.526C693.715 532.538 694.391 531.316 695.246 530.822C695.607 530.614 696.417 530.666 696.777 530.822C697.138 530.978 699.795 531.004 702.091 529.678C706.595 527.078 709.477 521.254 709.477 517.354C709.477 508.462 694.256 520.682 694.256 509.45C694.256 503.47 698.669 497.594 703.532 494.63C707.045 492.602 710.828 492.706 710.828 494.474C710.828 495.618 710.062 496.892 709.477 497.23C707.811 498.192 706.73 496.216 703.307 498.192C699.93 500.142 697.498 504.25 697.498 507.318C697.498 515.482 712.719 503.366 712.719 515.222C712.719 521.93 708.711 529.288 702.542 532.85ZM734.162 514.594C728.848 517.662 725.335 517.298 725.335 515.27C725.335 514.282 726.011 513.06 726.866 512.566C727.227 512.358 728.037 512.41 728.398 512.566C728.758 512.722 731.415 512.748 733.711 511.422C738.215 508.822 741.097 502.998 741.097 499.098C741.097 490.206 725.876 502.426 725.876 491.194C725.876 485.214 730.289 479.338 735.153 476.374C738.665 474.346 742.448 474.45 742.448 476.218C742.448 477.362 741.682 478.636 741.097 478.974C739.431 479.936 738.35 477.96 734.927 479.936C731.55 481.886 729.118 485.994 729.118 489.062C729.118 497.226 744.339 485.11 744.339 496.966C744.339 503.674 740.331 511.032 734.162 514.594ZM756.449 467.823L756.449 499.335C756.449 500.895 755.864 502.065 754.828 502.663C753.792 503.261 753.207 502.767 753.207 501.207L753.207 469.695L746.992 473.283C745.957 473.881 745.281 473.491 745.281 472.555C745.281 471.619 745.957 470.449 746.992 469.851L762.664 460.803C763.7 460.205 764.375 460.595 764.375 461.531C764.375 462.467 763.7 463.637 762.664 464.235L756.449 467.823ZM767.058 487.23L764.941 495.108C764.536 496.278 764.266 497.214 763.14 497.864C762.194 498.41 761.699 498.02 761.699 497.24C761.699 496.824 761.834 496.122 762.014 495.498L772.326 457.616C772.732 456.186 773.227 454.392 774.848 453.456C776.47 452.52 776.965 453.742 777.37 454.704L787.683 480.678C787.863 481.094 787.998 481.64 787.998 482.056C787.998 482.836 787.503 483.798 786.557 484.344C785.431 484.994 785.071 484.422 784.756 483.668L782.639 478.234L767.058 487.23ZM781.558 475.426L774.893 458.318L774.803 458.37L768.138 483.174L781.558 475.426ZM804.404 436.392C809.808 433.272 814.131 434.52 814.131 436.34C814.131 437.64 813.366 438.758 812.69 439.148C811.339 439.928 809.673 436.782 804.359 439.85C797.604 443.75 793.956 454.228 793.956 461.768C793.956 469.412 797.199 474.768 804.944 470.296C810.573 467.046 812.285 462.418 813.456 461.742C814.266 461.274 814.807 461.534 814.807 462.834C814.807 464.446 810.664 470.426 804.764 473.832C794.947 479.5 790.444 473.676 790.444 463.796C790.444 454.072 794.947 441.852 804.404 436.392ZM821.551 445.888L821.551 461.748C821.551 463.308 820.966 464.478 819.93 465.076C818.894 465.674 818.309 465.18 818.309 463.62L818.309 430.756C818.309 429.196 818.894 428.026 819.93 427.428C820.966 426.83 821.551 427.324 821.551 428.884L821.551 442.664L835.917 419.446C836.638 418.25 837.178 417.47 837.899 417.054C838.844 416.508 839.295 417.08 839.295 417.808C839.295 418.38 839.204 418.848 838.574 419.836L824.524 442.508L839.655 450.412C840.15 450.646 840.375 451.192 840.375 451.66C840.375 452.492 839.835 453.584 838.934 454.104C838.214 454.52 837.628 454.338 836.998 453.974L821.551 445.888Z" fill="black"/>
<path d="M345.288 422.007L286.606 388.127C282.033 385.487 281.843 382.077 285.844 379.767C289.845 377.457 295.751 377.567 300.324 380.207L318.995 390.987L319.186 390.877C318.519 387.192 322.615 383.397 326.902 380.922C337.667 374.707 352.528 374.047 364.15 380.757L390.442 395.937C395.015 398.577 395.205 401.987 391.204 404.297C387.203 406.607 381.297 406.497 376.724 403.857L352.813 390.052C346.431 386.367 339.381 386.917 334.428 389.777C328.807 393.022 329.76 397.202 335.095 400.282L359.005 414.087C363.578 416.727 363.769 420.137 359.768 422.447C355.767 424.757 349.86 424.647 345.288 422.007ZM376.026 352.561C390.505 344.201 413.273 345.686 427.182 353.716C441.471 361.966 443.757 374.616 428.992 383.141C414.226 391.666 392.315 390.346 378.026 382.096C364.118 374.066 361.546 360.921 376.026 352.561ZM388.6 359.821C381.074 364.166 385.171 370.381 391.744 374.176C398.317 377.971 408.986 380.171 416.417 375.881C423.847 371.591 420.037 365.431 413.464 361.636C406.891 357.841 396.126 355.476 388.6 359.821ZM461.635 355.604L417.147 343.339C413.432 342.294 411.241 341.579 409.24 340.424C406.192 338.664 406.573 335.584 410.574 333.274C413.908 331.349 418.481 331.239 422.482 332.669L456.586 343.229L456.776 343.119L439.153 323.704C436.485 320.954 436.104 318.534 440.105 316.224C444.106 313.914 448.298 314.134 453.061 315.674L486.689 325.849L486.879 325.739L468.589 306.049C466.112 303.739 466.303 301.099 469.637 299.174C473.638 296.864 478.973 296.644 483.164 299.064C484.688 299.944 485.546 301.209 486.975 302.804L508.314 328.654C510.886 331.789 511.457 334.869 506.98 337.454C502.788 339.874 497.93 339.929 492.69 338.334L463.54 329.644L463.35 329.754L478.401 346.584C481.164 349.609 481.068 352.414 476.877 354.834C472.399 357.419 467.065 357.089 461.635 355.604ZM551.879 286.891L522.633 303.776C530.35 307.131 539.114 305.701 545.497 302.016C552.546 297.946 551.879 291.951 555.499 289.861C558.452 288.156 564.073 288.321 567.026 290.026C572.932 293.436 566.454 303.776 556.261 309.661C540.829 318.571 519.299 318.021 504.152 309.276C490.244 301.246 487.672 288.101 502.152 279.741C517.013 271.161 540.352 273.306 551.784 279.906C555.88 282.271 556.071 284.471 551.879 286.891ZM513.202 298.661L535.018 286.066C528.254 283.041 519.966 282.656 513.584 286.341C507.487 289.861 508.058 294.921 513.202 298.661ZM576.086 248.495C579.23 250.31 579.802 253.39 576.563 255.26C573.991 256.745 564.75 257.46 560.273 260.045C557.796 261.475 556.748 263.4 559.415 264.94C565.798 268.625 588.661 254.325 604.284 263.345C613.429 268.625 612.667 277.095 600.855 283.915C593.138 288.37 577.325 292.44 571.133 288.865C569.037 287.655 567.132 284.135 570.942 281.935C576.277 278.855 583.326 280.175 589.804 276.435C593.996 274.015 593.9 272.53 591.328 271.045C585.041 267.415 562.178 281.715 546.46 272.64C536.933 267.14 538.172 258.945 549.032 252.675C555.795 248.77 569.323 244.59 576.086 248.495ZM620.363 263.192L588.735 244.932L585.687 246.692C581.972 248.837 577.399 248.837 573.684 246.692C570.254 244.712 570.254 241.742 573.684 239.762L576.732 238.002L568.54 233.272C563.967 230.632 563.777 227.222 567.778 224.912C571.779 222.602 577.685 222.712 582.258 225.352L590.45 230.082L594.356 227.827C597.881 225.792 602.549 224.967 606.931 227.497C611.217 229.972 609.884 232.722 606.359 234.757L602.453 237.012L634.081 255.272C638.653 257.912 638.844 261.322 634.843 263.632C630.842 265.942 624.935 265.832 620.363 263.192Z" fill="black"/>
<defs>
<filter id="filter0_d_13_10" x="54" y="374" width="840" height="623.867" filterUnits="userSpaceOnUse" color-interpolation-filters="sRGB">
<feFlood flood-opacity="0" result="BackgroundImageFix"/>
<feColorMatrix in="SourceAlpha" type="matrix" values="0 0 0 0 0 0 0 0 0 0 0 0 0 0 0 0 0 0 127 0" result="hardAlpha"/>
<feOffset dy="2"/>
<feGaussianBlur stdDeviation="10"/>
<feComposite in2="hardAlpha" operator="out"/>
<feColorMatrix type="matrix" values="0 0 0 0 0 0 0 0 0 0 0 0 0 0 0 0 0 0 1 0"/>
<feBlend mode="normal" in2="BackgroundImageFix" result="effect1_dropShadow_13_10"/>
<feBlend mode="normal" in="SourceGraphic" in2="effect1_dropShadow_13_10" result="shape"/>
</filter>
<filter id="filter1_d_13_10" x="54" y="225" width="840" height="623.867" filterUnits="userSpaceOnUse" color-interpolation-filters="sRGB">
<feFlood flood-opacity="0" result="BackgroundImageFix"/>
<feColorMatrix in="SourceAlpha" type="matrix" values="0 0 0 0 0 0 0 0 0 0 0 0 0 0 0 0 0 0 127 0" result="hardAlpha"/>
<feOffset dy="2"/>
<feGaussianBlur stdDeviation="10"/>
<feComposite in2="hardAlpha" operator="out"/>
<feColorMatrix type="matrix" values="0 0 0 0 0 0 0 0 0 0 0 0 0 0 0 0 0 0 1 0"/>
<feBlend mode="normal" in2="BackgroundImageFix" result="effect1_dropShadow_13_10"/>
<feBlend mode="normal" in="SourceGraphic" in2="effect1_dropShadow_13_10" result="shape"/>
</filter>
<filter id="filter2_d_13_10" x="54" y="75" width="840" height="623.867" filterUnits="userSpaceOnUse" color-interpolation-filters="sRGB">
<feFlood flood-opacity="0" result="BackgroundImageFix"/>
<feColorMatrix in="SourceAlpha" type="matrix" values="0 0 0 0 0 0 0 0 0 0 0 0 0 0 0 0 0 0 127 0" result="hardAlpha"/>
<feOffset dy="2"/>
<feGaussianBlur stdDeviation="10"/>
<feComposite in2="hardAlpha" operator="out"/>
<feColorMatrix type="matrix" values="0 0 0 0 0 0 0 0 0 0 0 0 0 0 0 0 0 0 1 0"/>
<feBlend mode="normal" in2="BackgroundImageFix" result="effect1_dropShadow_13_10"/>
<feBlend mode="normal" in="SourceGraphic" in2="effect1_dropShadow_13_10" result="shape"/>
</filter>
</defs>
</svg>
