<svg width="947" height="1053" viewBox="0 0 947 1053" fill="none" xmlns="http://www.w3.org/2000/svg">
<path d="M413.727 15.8131L61.0785 216.45C23.3195 237.933 -0.00012207 278.025 -0.00012207 321.46V731.54C-0.00012207 774.975 23.3195 815.067 61.0785 836.55L413.727 1037.19C450.785 1058.27 496.214 1058.27 533.273 1037.19L885.921 836.55C923.68 815.067 947 774.975 947 731.54V321.46C947 278.025 923.68 237.933 885.921 216.45L533.273 15.8131C496.214 -5.27103 450.785 -5.27102 413.727 15.8131Z" fill="#44C9F6"/>
<g filter="url(#filter0_d_1_352)">
<path d="M845.005 770.342C883.665 748.022 883.665 711.833 845.005 689.512L775.004 729.927L845.005 770.342Z" fill="#E6E6E6"/>
<path d="M544.001 944.127C505.34 966.448 442.659 966.448 403.999 944.127L474 903.712L544.001 944.127Z" fill="#E6E6E6"/>
<path d="M102.995 689.512C64.3348 711.833 64.3348 748.022 102.995 770.342L172.996 729.927L102.995 689.512Z" fill="#E6E6E6"/>
<path d="M403.999 944.127L474 903.712L172.996 729.927L102.995 770.342L403.999 944.127Z" fill="#E6E6E6"/>
<path d="M845.005 770.342L775.004 729.927L474 903.712L544.001 944.127L845.005 770.342Z" fill="#E6E6E6"/>
<path d="M474 903.712L775.004 729.927H172.996L474 903.712Z" fill="#E6E6E6"/>
<path d="M73.9999 694H874V730H73.9999V694Z" fill="#E6E6E6"/>
<path d="M845.005 734.355C883.665 712.035 883.665 675.846 845.005 653.525L544.001 479.74C505.34 457.42 442.659 457.42 403.999 479.74L102.995 653.525C64.3348 675.846 64.3348 712.035 102.995 734.355L403.999 908.14C442.659 930.46 505.34 930.46 544.001 908.14L845.005 734.355Z" fill="white"/>
</g>
<g filter="url(#filter1_d_1_352)">
<path d="M845.005 710.342C883.665 688.022 883.665 651.833 845.005 629.512L775.004 669.927L845.005 710.342Z" fill="#E6E6E6"/>
<path d="M544.001 884.127C505.34 906.447 442.659 906.447 403.999 884.127L474 843.712L544.001 884.127Z" fill="#E6E6E6"/>
<path d="M102.995 629.512C64.3348 651.833 64.3348 688.022 102.995 710.342L172.996 669.927L102.995 629.512Z" fill="#E6E6E6"/>
<path d="M403.999 884.127L474 843.712L172.996 669.927L102.995 710.342L403.999 884.127Z" fill="#E6E6E6"/>
<path d="M845.005 710.342L775.004 669.927L474 843.712L544.001 884.127L845.005 710.342Z" fill="#E6E6E6"/>
<path d="M474 843.712L775.004 669.927H172.996L474 843.712Z" fill="#E6E6E6"/>
<path d="M73.9999 594H874V670H73.9999V594Z" fill="#E6E6E6"/>
<path d="M845.005 634.355C883.665 612.035 883.665 575.846 845.005 553.525L544.001 379.74C505.34 357.42 442.659 357.42 403.999 379.74L102.995 553.525C64.3348 575.846 64.3348 612.035 102.995 634.355L403.999 808.14C442.659 830.46 505.34 830.46 544.001 808.14L845.005 634.355Z" fill="white"/>
</g>
<g filter="url(#filter2_d_1_352)">
<path d="M845.005 610.342C883.665 588.022 883.665 551.833 845.005 529.512L775.004 569.927L845.005 610.342Z" fill="#043749"/>
<path d="M544.001 784.127C505.34 806.447 442.659 806.447 403.999 784.127L474 743.712L544.001 784.127Z" fill="#043749"/>
<path d="M102.995 529.512C64.3348 551.833 64.3348 588.022 102.995 610.342L172.996 569.927L102.995 529.512Z" fill="#043749"/>
<path d="M403.999 784.127L474 743.712L172.996 569.927L102.995 610.342L403.999 784.127Z" fill="#043749"/>
<path d="M845.005 610.342L775.004 569.927L474 743.712L544.001 784.127L845.005 610.342Z" fill="#043749"/>
<path d="M474 743.712L775.004 569.927H172.996L474 743.712Z" fill="#043749"/>
<path d="M73.9999 484H874V570H73.9999V484Z" fill="#043749"/>
<path d="M845.005 524.355C883.665 502.035 883.665 465.846 845.005 443.525L544.001 269.74C505.34 247.42 442.659 247.42 403.999 269.74L102.995 443.525C64.3348 465.846 64.3348 502.035 102.995 524.355L403.999 698.14C442.659 720.46 505.34 720.46 544.001 698.14L845.005 524.355Z" fill="#086E91"/>
</g>
<g filter="url(#filter3_d_1_352)">
<path d="M845.005 500.342C883.665 478.022 883.665 441.833 845.005 419.512L775.004 459.927L845.005 500.342Z" fill="#4C4C4C"/>
<path d="M544.001 674.127C505.34 696.448 442.659 696.448 403.999 674.127L474 633.712L544.001 674.127Z" fill="#4C4C4C"/>
<path d="M102.995 419.512C64.3348 441.833 64.3348 478.022 102.995 500.342L172.996 459.927L102.995 419.512Z" fill="#4C4C4C"/>
<path d="M403.999 674.127L474 633.712L172.996 459.927L102.995 500.342L403.999 674.127Z" fill="#4C4C4C"/>
<path d="M845.005 500.342L775.004 459.927L474 633.712L544.001 674.127L845.005 500.342Z" fill="#4C4C4C"/>
<path d="M474 633.712L775.004 459.927H172.996L474 633.712Z" fill="#4C4C4C"/>
<path d="M73.9999 424H874V460H73.9999V424Z" fill="#4C4C4C"/>
<path d="M845.005 464.355C883.665 442.035 883.665 405.846 845.005 383.525L544.001 209.74C505.34 187.42 442.659 187.42 403.999 209.74L102.995 383.525C64.3348 405.846 64.3348 442.035 102.995 464.355L403.999 638.14C442.659 660.46 505.34 660.46 544.001 638.14L845.005 464.355Z" fill="#9D9D9D"/>
</g>
<g filter="url(#filter4_d_1_352)">
<path d="M845.005 440.342C883.665 418.022 883.665 381.833 845.005 359.512L775.004 399.927L845.005 440.342Z" fill="#E6E6E6"/>
<path d="M544.001 614.127C505.34 636.447 442.659 636.447 403.999 614.127L474 573.712L544.001 614.127Z" fill="#E6E6E6"/>
<path d="M102.995 359.512C64.3348 381.833 64.3348 418.022 102.995 440.342L172.996 399.927L102.995 359.512Z" fill="#E6E6E6"/>
<path d="M403.999 614.127L474 573.712L172.996 399.927L102.995 440.342L403.999 614.127Z" fill="#E6E6E6"/>
<path d="M845.005 440.342L775.004 399.927L474 573.712L544.001 614.127L845.005 440.342Z" fill="#E6E6E6"/>
<path d="M474 573.712L775.004 399.927H172.996L474 573.712Z" fill="#E6E6E6"/>
<path d="M73.9999 324H874V400H73.9999V324Z" fill="#E6E6E6"/>
<path d="M845.005 364.355C883.665 342.035 883.665 305.846 845.005 283.525L544.001 109.74C505.34 87.4198 442.659 87.4198 403.999 109.74L102.995 283.525C64.3348 305.846 64.3348 342.035 102.995 364.355L403.999 538.14C442.659 560.46 505.34 560.46 544.001 538.14L845.005 364.355Z" fill="white"/>
</g>
<path d="M546.842 936.514L548.297 927.274L548.504 927.154L547.091 936.142L551.425 933.64L551.383 933.892L546.842 936.514ZM555.887 931.327C555.181 931.735 554.585 931.939 554.1 931.939C553.615 931.931 553.244 931.745 552.988 931.381C552.739 931.013 552.614 930.493 552.614 929.821C552.614 929.149 552.711 928.453 552.905 927.733C553.106 927.009 553.393 926.303 553.767 925.615C554.142 924.919 554.595 924.281 555.129 923.701C555.662 923.121 556.265 922.637 556.937 922.249C557.644 921.841 558.24 921.641 558.725 921.649C559.216 921.645 559.587 921.827 559.836 922.195C560.086 922.555 560.211 923.075 560.211 923.755C560.211 924.427 560.11 925.125 559.909 925.849C559.715 926.569 559.431 927.277 559.057 927.973C558.683 928.661 558.229 929.295 557.696 929.875C557.162 930.455 556.559 930.939 555.887 931.327ZM555.908 931.087C556.532 930.727 557.093 930.275 557.592 929.731C558.098 929.183 558.527 928.583 558.88 927.931C559.241 927.275 559.518 926.599 559.712 925.903C559.906 925.207 560.003 924.531 560.003 923.875C560.003 923.243 559.885 922.759 559.649 922.423C559.421 922.083 559.078 921.913 558.621 921.913C558.163 921.905 557.595 922.097 556.916 922.489C556.293 922.849 555.728 923.303 555.222 923.851C554.723 924.395 554.294 924.995 553.934 925.651C553.58 926.303 553.307 926.977 553.113 927.673C552.919 928.369 552.822 929.045 552.822 929.701C552.822 930.325 552.936 930.811 553.165 931.159C553.4 931.495 553.747 931.667 554.204 931.675C554.661 931.675 555.229 931.479 555.908 931.087ZM564.575 926.312C563.868 926.72 563.272 926.924 562.787 926.924C562.302 926.916 561.932 926.73 561.675 926.366C561.426 925.998 561.301 925.478 561.301 924.806C561.301 924.134 561.398 923.438 561.592 922.718C561.793 921.994 562.081 921.288 562.455 920.6C562.836 919.9 563.296 919.258 563.837 918.674C564.377 918.09 564.99 917.6 565.676 917.204C566.231 916.884 566.722 916.696 567.152 916.64C567.589 916.572 567.928 916.636 568.17 916.832L568.025 917.072C567.776 916.888 567.45 916.828 567.048 916.892C566.653 916.952 566.189 917.136 565.656 917.444C565.025 917.808 564.453 918.266 563.941 918.818C563.428 919.37 562.992 919.974 562.631 920.63C562.271 921.286 561.994 921.962 561.8 922.658C561.606 923.354 561.509 924.03 561.509 924.686C561.509 925.31 561.623 925.796 561.852 926.144C562.088 926.48 562.434 926.652 562.891 926.66C563.348 926.66 563.917 926.464 564.596 926.072C565.087 925.788 565.527 925.442 565.915 925.034C566.31 924.622 566.667 924.164 566.986 923.66L567.09 923.78C566.785 924.276 566.414 924.75 565.978 925.202C565.548 925.65 565.08 926.02 564.575 926.312ZM566.892 923.894L567.422 920.516L567.62 920.402L567.09 923.78L566.892 923.894ZM572.623 921.665C571.916 922.073 571.32 922.277 570.835 922.277C570.35 922.269 569.98 922.083 569.723 921.719C569.474 921.351 569.349 920.831 569.349 920.159C569.349 919.487 569.446 918.791 569.64 918.071C569.841 917.347 570.129 916.641 570.503 915.953C570.877 915.257 571.331 914.619 571.864 914.039C572.398 913.459 573 912.975 573.672 912.587C574.379 912.179 574.975 911.979 575.46 911.987C575.952 911.983 576.322 912.165 576.572 912.533C576.821 912.893 576.946 913.413 576.946 914.093C576.946 914.765 576.845 915.463 576.645 916.187C576.451 916.907 576.166 917.615 575.792 918.311C575.418 918.999 574.964 919.633 574.431 920.213C573.897 920.793 573.295 921.277 572.623 921.665ZM572.643 921.425C573.267 921.065 573.828 920.613 574.327 920.069C574.833 919.521 575.262 918.921 575.616 918.269C575.976 917.613 576.253 916.937 576.447 916.241C576.641 915.545 576.738 914.869 576.738 914.213C576.738 913.581 576.62 913.097 576.385 912.761C576.156 912.421 575.813 912.251 575.356 912.251C574.899 912.243 574.33 912.435 573.652 912.827C573.028 913.187 572.463 913.641 571.958 914.189C571.459 914.733 571.029 915.333 570.669 915.989C570.316 916.641 570.042 917.315 569.848 918.011C569.654 918.707 569.557 919.383 569.557 920.039C569.557 920.663 569.671 921.149 569.9 921.497C570.135 921.833 570.482 922.005 570.939 922.013C571.396 922.013 571.965 921.817 572.643 921.425ZM580.738 916.944L582.193 907.704L585.072 906.042C585.723 905.666 586.236 905.514 586.61 905.586C586.991 905.646 587.182 905.956 587.182 906.516C587.182 907.068 587.064 907.6 586.828 908.112C586.6 908.612 586.288 909.068 585.893 909.48C585.505 909.888 585.072 910.23 584.594 910.506L584.791 910.26C585.443 909.884 585.952 909.738 586.319 909.822C586.693 909.894 586.88 910.23 586.88 910.83C586.88 911.374 586.762 911.906 586.527 912.426C586.291 912.946 585.948 913.436 585.498 913.896C585.055 914.352 584.511 914.766 583.867 915.138L580.738 916.944ZM580.988 916.572L583.908 914.886C584.795 914.374 585.477 913.78 585.955 913.104C586.433 912.428 586.672 911.718 586.672 910.974C586.672 910.398 586.499 910.086 586.153 910.038C585.813 909.986 585.304 910.156 584.625 910.548L581.611 912.288L581.653 912.036L584.417 910.44C584.909 910.156 585.346 909.82 585.727 909.432C586.115 909.032 586.42 908.6 586.641 908.136C586.863 907.664 586.974 907.176 586.974 906.672C586.974 906.176 586.808 905.9 586.475 905.844C586.142 905.78 585.675 905.922 585.072 906.27L582.36 907.836L580.988 916.572ZM590.044 911.571L590.553 908.337L590.574 908.505L588.537 904.041L588.765 903.909L590.698 908.157L590.626 908.211L594.408 900.651L594.668 900.501L590.678 908.469L590.761 908.217L590.252 911.451L590.044 911.571ZM597.301 907.381L598.756 898.141L601.635 896.479C602.286 896.103 602.799 895.951 603.173 896.023C603.554 896.083 603.744 896.393 603.744 896.953C603.744 897.505 603.627 898.037 603.391 898.549C603.162 899.049 602.851 899.505 602.456 899.917C602.068 900.325 601.635 900.667 601.157 900.943L601.354 900.697C602.005 900.321 602.515 900.175 602.882 900.259C603.256 900.331 603.443 900.667 603.443 901.267C603.443 901.811 603.325 902.343 603.09 902.863C602.854 903.383 602.511 903.873 602.061 904.333C601.617 904.789 601.074 905.203 600.429 905.575L597.301 907.381ZM597.551 907.009L600.471 905.323C601.358 904.811 602.04 904.217 602.518 903.541C602.996 902.865 603.235 902.155 603.235 901.411C603.235 900.835 603.062 900.523 602.716 900.475C602.376 900.423 601.867 900.593 601.188 900.985L598.174 902.725L598.216 902.473L600.98 900.877C601.472 900.593 601.908 900.257 602.289 899.869C602.677 899.469 602.982 899.037 603.204 898.573C603.426 898.101 603.537 897.613 603.537 897.109C603.537 896.613 603.37 896.337 603.038 896.281C602.705 896.217 602.238 896.359 601.635 896.707L598.922 898.273L597.551 907.009ZM605.075 902.893L606.53 893.653L608.972 892.243C609.741 891.799 610.337 891.651 610.76 891.799C611.189 891.935 611.404 892.359 611.404 893.071C611.404 893.791 611.269 894.473 610.999 895.117C610.735 895.757 610.358 896.343 609.866 896.875C609.374 897.407 608.789 897.869 608.11 898.261L605.688 899.659L605.803 899.485L605.283 902.773L605.075 902.893ZM610.261 899.899L608.764 897.715L609.003 897.577L610.5 899.761L610.261 899.899ZM605.803 899.461L605.73 899.407L608.099 898.039C609.083 897.471 609.845 896.775 610.386 895.951C610.926 895.127 611.196 894.207 611.196 893.191C611.196 892.551 611.006 892.169 610.625 892.045C610.244 891.913 609.696 892.053 608.983 892.465L606.603 893.839L606.717 893.677L605.803 899.461ZM613.429 893.69L617.492 891.344L617.45 891.596L613.387 893.942L613.429 893.69ZM612.764 898.226L617.398 895.55L617.357 895.802L612.514 898.598L613.969 889.358L618.656 886.652L618.614 886.904L614.135 889.49L612.764 898.226ZM622.575 892.825C621.868 893.233 621.272 893.437 620.787 893.437C620.302 893.429 619.932 893.243 619.675 892.879C619.426 892.511 619.301 891.991 619.301 891.319C619.301 890.647 619.398 889.951 619.592 889.231C619.793 888.507 620.081 887.801 620.455 887.113C620.836 886.413 621.297 885.771 621.837 885.187C622.377 884.603 622.99 884.113 623.676 883.717C624.224 883.401 624.705 883.215 625.121 883.159C625.543 883.099 625.876 883.167 626.119 883.363L625.973 883.603C625.724 883.419 625.405 883.359 625.017 883.423C624.636 883.475 624.182 883.653 623.656 883.957C623.025 884.321 622.454 884.779 621.941 885.331C621.428 885.883 620.992 886.487 620.631 887.143C620.271 887.799 619.994 888.475 619.8 889.171C619.606 889.867 619.509 890.543 619.509 891.199C619.509 891.823 619.623 892.309 619.852 892.657C620.088 892.993 620.434 893.165 620.891 893.173C621.348 893.173 621.917 892.977 622.596 892.585C623.129 892.277 623.607 891.913 624.03 891.493C624.459 891.061 624.826 890.593 625.131 890.089L625.256 890.209C624.958 890.701 624.574 891.183 624.102 891.655C623.631 892.119 623.122 892.509 622.575 892.825ZM633.756 877.934L633.964 877.814L632.509 887.054L632.301 887.174L633.756 877.934ZM627.001 890.234L626.793 890.354L628.248 881.114L628.456 880.994L627.001 890.234ZM633.07 882.578L627.666 885.698L627.708 885.446L633.112 882.326L633.07 882.578ZM636.639 884.669L638.052 875.681L635.35 877.241L635.392 876.989L641.004 873.749L640.962 874.001L638.26 875.561L636.847 884.549L636.639 884.669ZM645.565 879.516L643.746 872.166L643.964 872.04L645.731 879.216L645.637 879.27L650.251 868.41L650.501 868.266L645.772 879.396L645.565 879.516ZM650.379 876.737L651.834 867.497L654.442 865.991C655.17 865.571 655.78 865.359 656.271 865.355C656.77 865.347 657.144 865.523 657.394 865.883C657.65 866.239 657.778 866.753 657.778 867.425C657.778 868.153 657.671 868.887 657.456 869.627C657.248 870.363 656.947 871.073 656.552 871.757C656.157 872.433 655.679 873.057 655.118 873.629C654.564 874.197 653.94 874.681 653.247 875.081L650.379 876.737ZM650.628 876.365L653.268 874.841C654.148 874.333 654.907 873.691 655.544 872.915C656.188 872.127 656.687 871.271 657.041 870.347C657.394 869.415 657.571 868.481 657.571 867.545C657.571 866.921 657.453 866.441 657.217 866.105C656.989 865.765 656.642 865.601 656.178 865.613C655.714 865.617 655.128 865.823 654.422 866.231L652 867.629L650.628 876.365Z" fill="black"/>
<path d="M563.405 547.533C568.809 544.413 573.133 545.661 573.133 547.481C573.133 548.781 572.367 549.899 571.691 550.289C570.34 551.069 568.674 547.923 563.36 550.991C556.605 554.891 552.958 565.369 552.958 572.909C552.958 580.553 556.2 585.909 563.946 581.437C569.575 578.187 571.286 573.559 572.457 572.883C573.268 572.415 573.808 572.675 573.808 573.975C573.808 575.587 569.665 581.567 563.766 584.973C553.948 590.641 549.445 584.817 549.445 574.937C549.445 565.213 553.948 552.993 563.405 547.533ZM580.328 567.039L578.211 574.917C577.806 576.087 577.536 577.023 576.41 577.673C575.464 578.219 574.969 577.829 574.969 577.049C574.969 576.633 575.104 575.931 575.284 575.307L585.597 537.425C586.002 535.995 586.497 534.201 588.118 533.265C589.74 532.329 590.235 533.551 590.64 534.513L600.953 560.487C601.133 560.903 601.268 561.449 601.268 561.865C601.268 562.645 600.773 563.607 599.827 564.153C598.701 564.803 598.341 564.231 598.026 563.477L595.909 558.043L580.328 567.039ZM594.828 555.235L588.163 538.127L588.073 538.179L581.408 562.983L594.828 555.235ZM620.691 545.607L627.987 512.691C628.392 510.897 629.067 509.623 630.373 508.869C631.814 508.037 633.346 507.673 633.661 509.883L637.489 537.313C637.624 538.171 637.939 539.965 637.939 540.433C637.939 541.837 637.083 542.643 636.408 543.033C635.237 543.709 634.877 543.033 634.697 541.785L630.689 512.743L630.599 512.795L622.583 548.519C622.087 550.677 621.637 551.561 620.646 552.133C619.7 552.679 619.34 552.107 619.025 551.145L610.784 524.339L610.694 524.391L606.686 557.957C606.506 559.413 606.145 560.505 604.975 561.181C604.299 561.571 603.443 561.753 603.443 560.349C603.443 559.881 603.759 557.723 603.894 556.709L607.722 524.859C608.037 522.285 609.568 520.881 611.009 520.049C612.315 519.295 613.081 519.737 613.486 521.063L620.601 545.659L620.691 545.607ZM645.684 523.221L645.684 535.285C645.684 536.845 645.099 538.015 644.063 538.613C643.027 539.211 642.442 538.717 642.442 537.157L642.442 504.189C642.442 502.941 642.937 501.927 644.468 501.043L652.169 496.597C659.464 492.385 662.076 497.429 662.076 502.005C662.076 508.141 658.744 515.681 651.358 519.945L645.684 523.221ZM645.684 503.773L645.684 519.789L651.628 516.357C656.762 513.393 658.834 507.933 658.834 504.189C658.834 500.445 656.762 497.377 651.628 500.341L645.684 503.773ZM665.794 513.171L665.794 490.811C665.794 489.251 666.379 488.081 667.415 487.483C668.451 486.885 669.036 487.379 669.036 488.939L669.036 510.831C669.036 517.643 673.314 518.293 677.818 515.693C682.321 513.093 686.599 507.503 686.599 500.691L686.599 478.799C686.599 477.239 687.185 476.069 688.22 475.471C689.256 474.873 689.842 475.367 689.842 476.927L689.842 499.287C689.842 507.815 684.032 515.537 677.818 519.125C671.603 522.713 665.794 521.699 665.794 513.171ZM702.542 504.85C697.228 507.918 693.715 507.554 693.715 505.526C693.715 504.538 694.391 503.316 695.246 502.822C695.607 502.614 696.417 502.666 696.777 502.822C697.138 502.978 699.795 503.004 702.091 501.678C706.595 499.078 709.477 493.254 709.477 489.354C709.477 480.462 694.256 492.682 694.256 481.45C694.256 475.47 698.669 469.594 703.532 466.63C707.045 464.602 710.828 464.706 710.828 466.474C710.828 467.618 710.062 468.892 709.477 469.23C707.811 470.192 706.73 468.216 703.307 470.192C699.93 472.142 697.498 476.25 697.498 479.318C697.498 487.482 712.719 475.366 712.719 487.222C712.719 493.93 708.711 501.288 702.542 504.85ZM734.162 486.594C728.848 489.662 725.335 489.298 725.335 487.27C725.335 486.282 726.011 485.06 726.866 484.566C727.227 484.358 728.037 484.41 728.398 484.566C728.758 484.722 731.415 484.748 733.711 483.422C738.215 480.822 741.097 474.998 741.097 471.098C741.097 462.206 725.876 474.426 725.876 463.194C725.876 457.214 730.289 451.338 735.153 448.374C738.665 446.346 742.448 446.45 742.448 448.218C742.448 449.362 741.682 450.636 741.097 450.974C739.431 451.936 738.35 449.96 734.927 451.936C731.55 453.886 729.118 457.994 729.118 461.062C729.118 469.226 744.339 457.11 744.339 468.966C744.339 475.674 740.331 483.032 734.162 486.594ZM756.449 439.823L756.449 471.335C756.449 472.895 755.864 474.065 754.828 474.663C753.792 475.261 753.207 474.767 753.207 473.207L753.207 441.695L746.992 445.283C745.957 445.881 745.281 445.491 745.281 444.555C745.281 443.619 745.957 442.449 746.992 441.851L762.664 432.803C763.7 432.205 764.375 432.595 764.375 433.531C764.375 434.467 763.7 435.637 762.664 436.235L756.449 439.823ZM767.058 459.23L764.941 467.108C764.536 468.278 764.266 469.214 763.14 469.864C762.194 470.41 761.699 470.02 761.699 469.24C761.699 468.824 761.834 468.122 762.014 467.498L772.326 429.616C772.732 428.186 773.227 426.392 774.848 425.456C776.47 424.52 776.965 425.742 777.37 426.704L787.683 452.678C787.863 453.094 787.998 453.64 787.998 454.056C787.998 454.836 787.503 455.798 786.557 456.344C785.431 456.994 785.071 456.422 784.756 455.668L782.639 450.234L767.058 459.23ZM781.558 447.426L774.893 430.318L774.803 430.37L768.138 455.174L781.558 447.426ZM804.404 408.392C809.808 405.272 814.131 406.52 814.131 408.34C814.131 409.64 813.366 410.758 812.69 411.148C811.339 411.928 809.673 408.782 804.359 411.85C797.604 415.75 793.956 426.228 793.956 433.768C793.956 441.412 797.199 446.768 804.944 442.296C810.573 439.046 812.285 434.418 813.456 433.742C814.266 433.274 814.807 433.534 814.807 434.834C814.807 436.446 810.664 442.426 804.764 445.832C794.947 451.5 790.444 445.676 790.444 435.796C790.444 426.072 794.947 413.852 804.404 408.392ZM821.551 417.888L821.551 433.748C821.551 435.308 820.966 436.478 819.93 437.076C818.894 437.674 818.309 437.18 818.309 435.62L818.309 402.756C818.309 401.196 818.894 400.026 819.93 399.428C820.966 398.83 821.551 399.324 821.551 400.884L821.551 414.664L835.917 391.446C836.638 390.25 837.178 389.47 837.899 389.054C838.844 388.508 839.295 389.08 839.295 389.808C839.295 390.38 839.204 390.848 838.574 391.836L824.524 414.508L839.655 422.412C840.15 422.646 840.375 423.192 840.375 423.66C840.375 424.492 839.835 425.584 838.934 426.104C838.214 426.52 837.628 426.338 836.998 425.974L821.551 417.888Z" fill="black"/>
<mask id="mask0_1_352" style="mask-type:alpha" maskUnits="userSpaceOnUse" x="74" y="93" width="800" height="462">
<path d="M845.005 283.525C883.665 305.846 883.665 342.035 845.005 364.355L544.001 538.14C505.34 560.46 442.66 560.46 403.999 538.14L253.497 451.247L102.995 364.355C64.3349 342.035 64.3349 305.846 102.995 283.525L403.999 109.74C442.66 87.4198 505.34 87.4198 544.001 109.74L694.503 196.633L845.005 283.525Z" fill="#44C9F6"/>
</mask>
<g mask="url(#mask0_1_352)">
<path d="M2529.77 -103.419L826.278 747.524L181.227 20.418L1884.72 -830.525L2529.77 -103.419Z" fill="white" stroke="#44C9F6" stroke-width="4"/>
</g>
<path d="M345.288 422.007L286.606 388.127C282.033 385.487 281.843 382.077 285.844 379.767C289.845 377.457 295.751 377.567 300.324 380.207L318.995 390.987L319.186 390.877C318.519 387.192 322.615 383.397 326.902 380.922C337.667 374.707 352.528 374.047 364.15 380.757L390.442 395.937C395.015 398.577 395.205 401.987 391.204 404.297C387.203 406.607 381.297 406.497 376.724 403.857L352.813 390.052C346.431 386.367 339.381 386.917 334.428 389.777C328.807 393.022 329.76 397.202 335.095 400.282L359.005 414.087C363.578 416.727 363.769 420.137 359.768 422.447C355.767 424.757 349.86 424.647 345.288 422.007ZM376.026 352.561C390.505 344.201 413.273 345.686 427.182 353.716C441.471 361.966 443.757 374.616 428.992 383.141C414.226 391.666 392.315 390.346 378.026 382.096C364.118 374.066 361.546 360.921 376.026 352.561ZM388.6 359.821C381.074 364.166 385.171 370.381 391.744 374.176C398.317 377.971 408.986 380.171 416.417 375.881C423.847 371.591 420.037 365.431 413.464 361.636C406.891 357.841 396.126 355.476 388.6 359.821ZM461.635 355.604L417.147 343.339C413.432 342.294 411.241 341.579 409.24 340.424C406.192 338.664 406.573 335.584 410.574 333.274C413.908 331.349 418.481 331.239 422.482 332.669L456.586 343.229L456.776 343.119L439.153 323.704C436.485 320.954 436.104 318.534 440.105 316.224C444.106 313.914 448.298 314.134 453.061 315.674L486.689 325.849L486.879 325.739L468.589 306.049C466.112 303.739 466.303 301.099 469.637 299.174C473.638 296.864 478.973 296.644 483.164 299.064C484.688 299.944 485.546 301.209 486.975 302.804L508.314 328.654C510.886 331.789 511.457 334.869 506.98 337.454C502.788 339.874 497.93 339.929 492.69 338.334L463.54 329.644L463.35 329.754L478.401 346.584C481.164 349.609 481.068 352.414 476.877 354.834C472.399 357.419 467.065 357.089 461.635 355.604ZM551.879 286.891L522.633 303.776C530.35 307.131 539.114 305.701 545.497 302.016C552.546 297.946 551.879 291.951 555.499 289.861C558.452 288.156 564.073 288.321 567.026 290.026C572.932 293.436 566.454 303.776 556.261 309.661C540.829 318.571 519.299 318.021 504.152 309.276C490.244 301.246 487.672 288.101 502.152 279.741C517.013 271.161 540.352 273.306 551.784 279.906C555.88 282.271 556.071 284.471 551.879 286.891ZM513.202 298.661L535.018 286.066C528.254 283.041 519.966 282.656 513.584 286.341C507.487 289.861 508.058 294.921 513.202 298.661ZM576.086 248.495C579.23 250.31 579.802 253.39 576.563 255.26C573.991 256.745 564.75 257.46 560.273 260.045C557.796 261.475 556.748 263.4 559.415 264.94C565.798 268.625 588.661 254.325 604.284 263.345C613.429 268.625 612.667 277.095 600.855 283.915C593.138 288.37 577.325 292.44 571.133 288.865C569.037 287.655 567.132 284.135 570.942 281.935C576.277 278.855 583.326 280.175 589.804 276.435C593.996 274.015 593.9 272.53 591.328 271.045C585.041 267.415 562.178 281.715 546.46 272.64C536.933 267.14 538.172 258.945 549.032 252.675C555.795 248.77 569.323 244.59 576.086 248.495ZM620.363 263.192L588.735 244.932L585.687 246.692C581.972 248.837 577.399 248.837 573.684 246.692C570.254 244.712 570.254 241.742 573.684 239.762L576.732 238.002L568.54 233.272C563.967 230.632 563.777 227.222 567.778 224.912C571.779 222.602 577.685 222.712 582.258 225.352L590.45 230.082L594.356 227.827C597.881 225.792 602.549 224.967 606.931 227.497C611.217 229.972 609.884 232.722 606.359 234.757L602.453 237.012L634.081 255.272C638.653 257.912 638.844 261.322 634.843 263.632C630.842 265.942 624.935 265.832 620.363 263.192Z" fill="black"/>
<defs>
<filter id="filter0_d_1_352" x="53.9999" y="445" width="840" height="537.867" filterUnits="userSpaceOnUse" color-interpolation-filters="sRGB">
<feFlood flood-opacity="0" result="BackgroundImageFix"/>
<feColorMatrix in="SourceAlpha" type="matrix" values="0 0 0 0 0 0 0 0 0 0 0 0 0 0 0 0 0 0 127 0" result="hardAlpha"/>
<feOffset dy="2"/>
<feGaussianBlur stdDeviation="10"/>
<feComposite in2="hardAlpha" operator="out"/>
<feColorMatrix type="matrix" values="0 0 0 0 0 0 0 0 0 0 0 0 0 0 0 0 0 0 1 0"/>
<feBlend mode="normal" in2="BackgroundImageFix" result="effect1_dropShadow_1_352"/>
<feBlend mode="normal" in="SourceGraphic" in2="effect1_dropShadow_1_352" result="shape"/>
</filter>
<filter id="filter1_d_1_352" x="53.9999" y="345" width="840" height="577.867" filterUnits="userSpaceOnUse" color-interpolation-filters="sRGB">
<feFlood flood-opacity="0" result="BackgroundImageFix"/>
<feColorMatrix in="SourceAlpha" type="matrix" values="0 0 0 0 0 0 0 0 0 0 0 0 0 0 0 0 0 0 127 0" result="hardAlpha"/>
<feOffset dy="2"/>
<feGaussianBlur stdDeviation="10"/>
<feComposite in2="hardAlpha" operator="out"/>
<feColorMatrix type="matrix" values="0 0 0 0 0 0 0 0 0 0 0 0 0 0 0 0 0 0 1 0"/>
<feBlend mode="normal" in2="BackgroundImageFix" result="effect1_dropShadow_1_352"/>
<feBlend mode="normal" in="SourceGraphic" in2="effect1_dropShadow_1_352" result="shape"/>
</filter>
<filter id="filter2_d_1_352" x="53.9999" y="235" width="840" height="587.867" filterUnits="userSpaceOnUse" color-interpolation-filters="sRGB">
<feFlood flood-opacity="0" result="BackgroundImageFix"/>
<feColorMatrix in="SourceAlpha" type="matrix" values="0 0 0 0 0 0 0 0 0 0 0 0 0 0 0 0 0 0 127 0" result="hardAlpha"/>
<feOffset dy="2"/>
<feGaussianBlur stdDeviation="10"/>
<feComposite in2="hardAlpha" operator="out"/>
<feColorMatrix type="matrix" values="0 0 0 0 0 0 0 0 0 0 0 0 0 0 0 0 0 0 1 0"/>
<feBlend mode="normal" in2="BackgroundImageFix" result="effect1_dropShadow_1_352"/>
<feBlend mode="normal" in="SourceGraphic" in2="effect1_dropShadow_1_352" result="shape"/>
</filter>
<filter id="filter3_d_1_352" x="53.9999" y="175" width="840" height="537.867" filterUnits="userSpaceOnUse" color-interpolation-filters="sRGB">
<feFlood flood-opacity="0" result="BackgroundImageFix"/>
<feColorMatrix in="SourceAlpha" type="matrix" values="0 0 0 0 0 0 0 0 0 0 0 0 0 0 0 0 0 0 127 0" result="hardAlpha"/>
<feOffset dy="2"/>
<feGaussianBlur stdDeviation="10"/>
<feComposite in2="hardAlpha" operator="out"/>
<feColorMatrix type="matrix" values="0 0 0 0 0 0 0 0 0 0 0 0 0 0 0 0 0 0 1 0"/>
<feBlend mode="normal" in2="BackgroundImageFix" result="effect1_dropShadow_1_352"/>
<feBlend mode="normal" in="SourceGraphic" in2="effect1_dropShadow_1_352" result="shape"/>
</filter>
<filter id="filter4_d_1_352" x="53.9999" y="75" width="840" height="577.867" filterUnits="userSpaceOnUse" color-interpolation-filters="sRGB">
<feFlood flood-opacity="0" result="BackgroundImageFix"/>
<feColorMatrix in="SourceAlpha" type="matrix" values="0 0 0 0 0 0 0 0 0 0 0 0 0 0 0 0 0 0 127 0" result="hardAlpha"/>
<feOffset dy="2"/>
<feGaussianBlur stdDeviation="10"/>
<feComposite in2="hardAlpha" operator="out"/>
<feColorMatrix type="matrix" values="0 0 0 0 0 0 0 0 0 0 0 0 0 0 0 0 0 0 1 0"/>
<feBlend mode="normal" in2="BackgroundImageFix" result="effect1_dropShadow_1_352"/>
<feBlend mode="normal" in="SourceGraphic" in2="effect1_dropShadow_1_352" result="shape"/>
</filter>
</defs>
</svg>
