<svg width="947" height="1053" viewBox="0 0 947 1053" fill="none" xmlns="http://www.w3.org/2000/svg">
<path d="M413.727 15.8131L61.0786 216.45C23.3196 237.933 0 278.025 0 321.46V731.54C0 774.975 23.3196 815.067 61.0786 836.55L413.727 1037.19C450.785 1058.27 496.215 1058.27 533.273 1037.19L885.921 836.55C923.68 815.067 947 774.975 947 731.54V321.46C947 278.025 923.68 237.933 885.921 216.45L533.273 15.8131C496.215 -5.27103 450.785 -5.27102 413.727 15.8131Z" fill="white"/>
<g filter="url(#filter0_d_1_390)">
<path d="M845.005 770.342C883.665 748.022 883.665 711.833 845.005 689.512L775.004 729.927L845.005 770.342Z" fill="url(#paint0_linear_1_390)"/>
<path d="M544.001 944.127C505.34 966.448 442.66 966.448 403.999 944.127L474 903.712L544.001 944.127Z" fill="url(#paint1_linear_1_390)"/>
<path d="M102.995 689.512C64.3349 711.833 64.3349 748.022 102.995 770.342L172.996 729.927L102.995 689.512Z" fill="url(#paint2_linear_1_390)"/>
<path d="M403.999 944.127L474 903.712L172.996 729.927L102.995 770.342L403.999 944.127Z" fill="url(#paint3_linear_1_390)"/>
<path d="M845.005 770.342L775.004 729.927L474 903.712L544.001 944.127L845.005 770.342Z" fill="url(#paint4_linear_1_390)"/>
<path d="M474 903.712L775.004 729.927H172.996L474 903.712Z" fill="url(#paint5_linear_1_390)"/>
<path d="M74 694H874V730H74V694Z" fill="url(#paint6_linear_1_390)"/>
<path d="M845.005 734.355C883.665 712.035 883.665 675.846 845.005 653.525L544.001 479.74C505.34 457.42 442.66 457.42 403.999 479.74L102.995 653.525C64.3349 675.846 64.3349 712.035 102.995 734.355L403.999 908.14C442.66 930.46 505.34 930.46 544.001 908.14L845.005 734.355Z" fill="#44C9F6"/>
</g>
<g filter="url(#filter1_d_1_390)">
<path d="M845.005 710.342C883.665 688.022 883.665 651.833 845.005 629.512L775.004 669.927L845.005 710.342Z" fill="url(#paint7_linear_1_390)"/>
<path d="M544.001 884.127C505.34 906.447 442.66 906.447 403.999 884.127L474 843.712L544.001 884.127Z" fill="url(#paint8_linear_1_390)"/>
<path d="M102.995 629.512C64.3349 651.833 64.3349 688.022 102.995 710.342L172.996 669.927L102.995 629.512Z" fill="url(#paint9_linear_1_390)"/>
<path d="M403.999 884.127L474 843.712L172.996 669.927L102.995 710.342L403.999 884.127Z" fill="url(#paint10_linear_1_390)"/>
<path d="M845.005 710.342L775.004 669.927L474 843.712L544.001 884.127L845.005 710.342Z" fill="url(#paint11_linear_1_390)"/>
<path d="M474 843.712L775.004 669.927H172.996L474 843.712Z" fill="url(#paint12_linear_1_390)"/>
<path d="M74 594H874V670H74V594Z" fill="url(#paint13_linear_1_390)"/>
<path d="M845.005 634.355C883.665 612.035 883.665 575.846 845.005 553.525L544.001 379.74C505.34 357.42 442.66 357.42 403.999 379.74L102.995 553.525C64.3349 575.846 64.3349 612.035 102.995 634.355L403.999 808.14C442.66 830.46 505.34 830.46 544.001 808.14L845.005 634.355Z" fill="#44C9F6"/>
</g>
<g filter="url(#filter2_d_1_390)">
<path d="M845.005 610.342C883.665 588.022 883.665 551.833 845.005 529.512L775.004 569.927L845.005 610.342Z" fill="#CCCCCC"/>
<path d="M544.001 784.127C505.34 806.447 442.66 806.447 403.999 784.127L474 743.712L544.001 784.127Z" fill="#CCCCCC"/>
<path d="M102.995 529.512C64.3349 551.833 64.3349 588.022 102.995 610.342L172.996 569.927L102.995 529.512Z" fill="#CCCCCC"/>
<path d="M403.999 784.127L474 743.712L172.996 569.927L102.995 610.342L403.999 784.127Z" fill="#CCCCCC"/>
<path d="M845.005 610.342L775.004 569.927L474 743.712L544.001 784.127L845.005 610.342Z" fill="#CCCCCC"/>
<path d="M474 743.712L775.004 569.927H172.996L474 743.712Z" fill="#CCCCCC"/>
<path d="M74 484H874V570H74V484Z" fill="#CCCCCC"/>
<path d="M845.005 524.355C883.665 502.035 883.665 465.846 845.005 443.525L544.001 269.74C505.34 247.42 442.66 247.42 403.999 269.74L102.995 443.525C64.3349 465.846 64.3349 502.035 102.995 524.355L403.999 698.14C442.66 720.46 505.34 720.46 544.001 698.14L845.005 524.355Z" fill="#FBFBFB"/>
</g>
<g filter="url(#filter3_d_1_390)">
<path d="M845.005 500.342C883.665 478.022 883.665 441.833 845.005 419.512L775.004 459.927L845.005 500.342Z" fill="#4C4C4C"/>
<path d="M544.001 674.127C505.34 696.448 442.66 696.448 403.999 674.127L474 633.712L544.001 674.127Z" fill="#4C4C4C"/>
<path d="M102.995 419.512C64.3349 441.833 64.3349 478.022 102.995 500.342L172.996 459.927L102.995 419.512Z" fill="#4C4C4C"/>
<path d="M403.999 674.127L474 633.712L172.996 459.927L102.995 500.342L403.999 674.127Z" fill="#4C4C4C"/>
<path d="M845.005 500.342L775.004 459.927L474 633.712L544.001 674.127L845.005 500.342Z" fill="#4C4C4C"/>
<path d="M474 633.712L775.004 459.927H172.996L474 633.712Z" fill="#4C4C4C"/>
<path d="M74 424H874V460H74V424Z" fill="#4C4C4C"/>
<path d="M845.005 464.355C883.665 442.035 883.665 405.846 845.005 383.525L544.001 209.74C505.34 187.42 442.66 187.42 403.999 209.74L102.995 383.525C64.3349 405.846 64.3349 442.035 102.995 464.355L403.999 638.14C442.66 660.46 505.34 660.46 544.001 638.14L845.005 464.355Z" fill="#9D9D9D"/>
</g>
<g filter="url(#filter4_d_1_390)">
<path d="M845.005 440.342C883.665 418.022 883.665 381.833 845.005 359.512L775.004 399.927L845.005 440.342Z" fill="url(#paint14_linear_1_390)"/>
<path d="M544.001 614.127C505.34 636.447 442.66 636.447 403.999 614.127L474 573.712L544.001 614.127Z" fill="url(#paint15_linear_1_390)"/>
<path d="M102.995 359.512C64.3349 381.833 64.3349 418.022 102.995 440.342L172.996 399.927L102.995 359.512Z" fill="url(#paint16_linear_1_390)"/>
<path d="M403.999 614.127L474 573.712L172.996 399.927L102.995 440.342L403.999 614.127Z" fill="url(#paint17_linear_1_390)"/>
<path d="M845.005 440.342L775.004 399.927L474 573.712L544.001 614.127L845.005 440.342Z" fill="url(#paint18_linear_1_390)"/>
<path d="M474 573.712L775.004 399.927H172.996L474 573.712Z" fill="url(#paint19_linear_1_390)"/>
<path d="M74 324H874V400H74V324Z" fill="url(#paint20_linear_1_390)"/>
<path d="M845.005 364.355C883.665 342.035 883.665 305.846 845.005 283.525L544.001 109.74C505.34 87.4198 442.66 87.4198 403.999 109.74L102.995 283.525C64.3349 305.846 64.3349 342.035 102.995 364.355L403.999 538.14C442.66 560.46 505.34 560.46 544.001 538.14L845.005 364.355Z" fill="#44C9F6"/>
</g>
<path d="M546.842 936.514L548.297 927.274L548.505 927.154L547.091 936.142L551.425 933.64L551.383 933.892L546.842 936.514ZM555.888 931.327C555.181 931.735 554.585 931.939 554.1 931.939C553.615 931.931 553.244 931.745 552.988 931.381C552.739 931.013 552.614 930.493 552.614 929.821C552.614 929.149 552.711 928.453 552.905 927.733C553.106 927.009 553.393 926.303 553.768 925.615C554.142 924.919 554.595 924.281 555.129 923.701C555.662 923.121 556.265 922.637 556.937 922.249C557.644 921.841 558.24 921.641 558.725 921.649C559.217 921.645 559.587 921.827 559.837 922.195C560.086 922.555 560.211 923.075 560.211 923.755C560.211 924.427 560.11 925.125 559.909 925.849C559.715 926.569 559.431 927.277 559.057 927.973C558.683 928.661 558.229 929.295 557.696 929.875C557.162 930.455 556.56 930.939 555.888 931.327ZM555.908 931.087C556.532 930.727 557.093 930.275 557.592 929.731C558.098 929.183 558.527 928.583 558.881 927.931C559.241 927.275 559.518 926.599 559.712 925.903C559.906 925.207 560.003 924.531 560.003 923.875C560.003 923.243 559.885 922.759 559.65 922.423C559.421 922.083 559.078 921.913 558.621 921.913C558.163 921.905 557.595 922.097 556.916 922.489C556.293 922.849 555.728 923.303 555.222 923.851C554.724 924.395 554.294 924.995 553.934 925.651C553.58 926.303 553.307 926.977 553.113 927.673C552.919 928.369 552.822 929.045 552.822 929.701C552.822 930.325 552.936 930.811 553.165 931.159C553.4 931.495 553.747 931.667 554.204 931.675C554.661 931.675 555.229 931.479 555.908 931.087ZM564.575 926.312C563.868 926.72 563.272 926.924 562.787 926.924C562.302 926.916 561.932 926.73 561.675 926.366C561.426 925.998 561.301 925.478 561.301 924.806C561.301 924.134 561.398 923.438 561.592 922.718C561.793 921.994 562.081 921.288 562.455 920.6C562.836 919.9 563.297 919.258 563.837 918.674C564.377 918.09 564.991 917.6 565.676 917.204C566.231 916.884 566.723 916.696 567.152 916.64C567.589 916.572 567.928 916.636 568.171 916.832L568.025 917.072C567.776 916.888 567.45 916.828 567.048 916.892C566.653 916.952 566.189 917.136 565.656 917.444C565.025 917.808 564.454 918.266 563.941 918.818C563.428 919.37 562.992 919.974 562.632 920.63C562.271 921.286 561.994 921.962 561.8 922.658C561.606 923.354 561.509 924.03 561.509 924.686C561.509 925.31 561.623 925.796 561.852 926.144C562.088 926.48 562.434 926.652 562.891 926.66C563.349 926.66 563.917 926.464 564.596 926.072C565.088 925.788 565.527 925.442 565.915 925.034C566.31 924.622 566.667 924.164 566.986 923.66L567.09 923.78C566.785 924.276 566.414 924.75 565.978 925.202C565.548 925.65 565.081 926.02 564.575 926.312ZM566.892 923.894L567.422 920.516L567.62 920.402L567.09 923.78L566.892 923.894ZM572.623 921.665C571.916 922.073 571.32 922.277 570.835 922.277C570.35 922.269 569.98 922.083 569.723 921.719C569.474 921.351 569.349 920.831 569.349 920.159C569.349 919.487 569.446 918.791 569.64 918.071C569.841 917.347 570.129 916.641 570.503 915.953C570.877 915.257 571.331 914.619 571.864 914.039C572.398 913.459 573 912.975 573.672 912.587C574.379 912.179 574.975 911.979 575.46 911.987C575.952 911.983 576.322 912.165 576.572 912.533C576.821 912.893 576.946 913.413 576.946 914.093C576.946 914.765 576.846 915.463 576.645 916.187C576.451 916.907 576.167 917.615 575.792 918.311C575.418 918.999 574.965 919.633 574.431 920.213C573.898 920.793 573.295 921.277 572.623 921.665ZM572.644 921.425C573.267 921.065 573.828 920.613 574.327 920.069C574.833 919.521 575.262 918.921 575.616 918.269C575.976 917.613 576.253 916.937 576.447 916.241C576.641 915.545 576.738 914.869 576.738 914.213C576.738 913.581 576.62 913.097 576.385 912.761C576.156 912.421 575.813 912.251 575.356 912.251C574.899 912.243 574.331 912.435 573.652 912.827C573.028 913.187 572.463 913.641 571.958 914.189C571.459 914.733 571.029 915.333 570.669 915.989C570.316 916.641 570.042 917.315 569.848 918.011C569.654 918.707 569.557 919.383 569.557 920.039C569.557 920.663 569.671 921.149 569.9 921.497C570.136 921.833 570.482 922.005 570.939 922.013C571.397 922.013 571.965 921.817 572.644 921.425ZM580.739 916.944L582.193 907.704L585.072 906.042C585.723 905.666 586.236 905.514 586.61 905.586C586.991 905.646 587.182 905.956 587.182 906.516C587.182 907.068 587.064 907.6 586.828 908.112C586.6 908.612 586.288 909.068 585.893 909.48C585.505 909.888 585.072 910.23 584.594 910.506L584.792 910.26C585.443 909.884 585.952 909.738 586.319 909.822C586.693 909.894 586.88 910.23 586.88 910.83C586.88 911.374 586.763 911.906 586.527 912.426C586.292 912.946 585.949 913.436 585.498 913.896C585.055 914.352 584.511 914.766 583.867 915.138L580.739 916.944ZM580.988 916.572L583.908 914.886C584.795 914.374 585.477 913.78 585.955 913.104C586.434 912.428 586.673 911.718 586.673 910.974C586.673 910.398 586.499 910.086 586.153 910.038C585.813 909.986 585.304 910.156 584.625 910.548L581.612 912.288L581.653 912.036L584.417 910.44C584.909 910.156 585.346 909.82 585.727 909.432C586.115 909.032 586.42 908.6 586.641 908.136C586.863 907.664 586.974 907.176 586.974 906.672C586.974 906.176 586.808 905.9 586.475 905.844C586.143 905.78 585.675 905.922 585.072 906.27L582.36 907.836L580.988 916.572ZM590.044 911.571L590.553 908.337L590.574 908.505L588.537 904.041L588.766 903.909L590.699 908.157L590.626 908.211L594.409 900.651L594.668 900.501L590.678 908.469L590.761 908.217L590.252 911.451L590.044 911.571ZM597.301 907.381L598.756 898.141L601.635 896.479C602.286 896.103 602.799 895.951 603.173 896.023C603.554 896.083 603.745 896.393 603.745 896.953C603.745 897.505 603.627 898.037 603.391 898.549C603.163 899.049 602.851 899.505 602.456 899.917C602.068 900.325 601.635 900.667 601.157 900.943L601.354 900.697C602.006 900.321 602.515 900.175 602.882 900.259C603.256 900.331 603.443 900.667 603.443 901.267C603.443 901.811 603.325 902.343 603.09 902.863C602.854 903.383 602.511 903.873 602.061 904.333C601.618 904.789 601.074 905.203 600.429 905.575L597.301 907.381ZM597.551 907.009L600.471 905.323C601.358 904.811 602.04 904.217 602.518 903.541C602.996 902.865 603.235 902.155 603.235 901.411C603.235 900.835 603.062 900.523 602.716 900.475C602.376 900.423 601.867 900.593 601.188 900.985L598.174 902.725L598.216 902.473L600.98 900.877C601.472 900.593 601.909 900.257 602.29 899.869C602.678 899.469 602.982 899.037 603.204 898.573C603.426 898.101 603.537 897.613 603.537 897.109C603.537 896.613 603.37 896.337 603.038 896.281C602.705 896.217 602.238 896.359 601.635 896.707L598.922 898.273L597.551 907.009ZM605.075 902.893L606.53 893.653L608.972 892.243C609.741 891.799 610.337 891.651 610.76 891.799C611.189 891.935 611.404 892.359 611.404 893.071C611.404 893.791 611.269 894.473 610.999 895.117C610.736 895.757 610.358 896.343 609.866 896.875C609.374 897.407 608.789 897.869 608.11 898.261L605.688 899.659L605.803 899.485L605.283 902.773L605.075 902.893ZM610.261 899.899L608.764 897.715L609.004 897.577L610.5 899.761L610.261 899.899ZM605.803 899.461L605.73 899.407L608.099 898.039C609.083 897.471 609.845 896.775 610.386 895.951C610.926 895.127 611.196 894.207 611.196 893.191C611.196 892.551 611.006 892.169 610.625 892.045C610.244 891.913 609.696 892.053 608.983 892.465L606.603 893.839L606.717 893.677L605.803 899.461ZM613.429 893.69L617.492 891.344L617.451 891.596L613.387 893.942L613.429 893.69ZM612.764 898.226L617.399 895.55L617.357 895.802L612.514 898.598L613.969 889.358L618.656 886.652L618.615 886.904L614.135 889.49L612.764 898.226ZM622.575 892.825C621.868 893.233 621.272 893.437 620.787 893.437C620.302 893.429 619.932 893.243 619.675 892.879C619.426 892.511 619.301 891.991 619.301 891.319C619.301 890.647 619.398 889.951 619.592 889.231C619.793 888.507 620.081 887.801 620.455 887.113C620.836 886.413 621.297 885.771 621.837 885.187C622.377 884.603 622.991 884.113 623.676 883.717C624.224 883.401 624.705 883.215 625.121 883.159C625.544 883.099 625.876 883.167 626.119 883.363L625.973 883.603C625.724 883.419 625.405 883.359 625.017 883.423C624.636 883.475 624.182 883.653 623.656 883.957C623.025 884.321 622.454 884.779 621.941 885.331C621.428 885.883 620.992 886.487 620.632 887.143C620.271 887.799 619.994 888.475 619.8 889.171C619.606 889.867 619.509 890.543 619.509 891.199C619.509 891.823 619.623 892.309 619.852 892.657C620.088 892.993 620.434 893.165 620.891 893.173C621.349 893.173 621.917 892.977 622.596 892.585C623.129 892.277 623.607 891.913 624.03 891.493C624.459 891.061 624.827 890.593 625.131 890.089L625.256 890.209C624.958 890.701 624.574 891.183 624.103 891.655C623.631 892.119 623.122 892.509 622.575 892.825ZM633.756 877.934L633.964 877.814L632.509 887.054L632.301 887.174L633.756 877.934ZM627.001 890.234L626.794 890.354L628.248 881.114L628.456 880.994L627.001 890.234ZM633.07 882.578L627.666 885.698L627.708 885.446L633.112 882.326L633.07 882.578ZM636.639 884.669L638.053 875.681L635.351 877.241L635.392 876.989L641.004 873.749L640.962 874.001L638.26 875.561L636.847 884.549L636.639 884.669ZM645.565 879.516L643.746 872.166L643.964 872.04L645.731 879.216L645.637 879.27L650.252 868.41L650.501 868.266L645.773 879.396L645.565 879.516ZM650.379 876.737L651.834 867.497L654.443 865.991C655.17 865.571 655.78 865.359 656.272 865.355C656.77 865.347 657.145 865.523 657.394 865.883C657.65 866.239 657.778 866.753 657.778 867.425C657.778 868.153 657.671 868.887 657.456 869.627C657.248 870.363 656.947 871.073 656.552 871.757C656.157 872.433 655.679 873.057 655.118 873.629C654.564 874.197 653.94 874.681 653.247 875.081L650.379 876.737ZM650.629 876.365L653.268 874.841C654.148 874.333 654.907 873.691 655.544 872.915C656.188 872.127 656.687 871.271 657.041 870.347C657.394 869.415 657.571 868.481 657.571 867.545C657.571 866.921 657.453 866.441 657.217 866.105C656.989 865.765 656.642 865.601 656.178 865.613C655.714 865.617 655.128 865.823 654.422 866.231L652 867.629L650.629 876.365Z" fill="black"/>
<path d="M558.868 579.888C562.246 577.938 563.441 575.568 564.48 574.968C565.155 574.578 566.039 574.788 566.039 575.808C566.039 578.448 562.557 581.718 558.868 583.848C551.074 588.348 546.969 582.438 546.969 574.398C546.969 566.358 551.49 555.468 559.336 550.938C562.869 548.898 566.195 548.538 566.195 550.338C566.195 551.718 565.571 553.098 564.116 553.938C563.129 554.508 562.246 553.218 558.868 555.168C553.568 558.228 551.022 566.598 551.022 571.698C551.022 578.418 553.984 582.708 558.868 579.888ZM589.751 538.118L589.751 536.138C589.751 534.338 590.426 532.988 591.621 532.298C592.816 531.608 593.492 532.178 593.492 533.978L593.492 561.098C593.492 562.898 592.816 564.248 591.621 564.938C590.426 565.628 589.751 565.058 589.751 563.258L589.751 561.278L589.595 561.368C587.932 565.448 585.178 568.658 581.956 570.518C574.006 575.108 570.057 570.068 570.057 561.068C570.057 553.028 573.85 542.558 581.853 537.938C585.074 536.078 587.464 536.258 589.595 538.208L589.751 538.118ZM574.11 558.728C574.11 564.548 576.137 570.278 581.956 566.918C587.776 563.558 589.751 555.518 589.751 549.698C589.751 543.878 587.776 538.118 581.956 541.478C576.293 544.748 574.11 552.908 574.11 558.728ZM620.391 527.988L620.391 545.568C620.391 547.368 619.715 548.718 618.52 549.408C617.325 550.098 616.649 549.528 616.649 547.728L616.649 530.148C616.649 523.128 613.324 523.728 610.414 525.408C607.4 527.148 604.075 531.948 604.075 537.408L604.075 554.988C604.075 556.788 603.399 558.138 602.204 558.828C601.009 559.518 600.333 558.948 600.333 557.148L600.333 530.028C600.333 528.228 601.009 526.878 602.204 526.188C603.399 525.498 604.075 526.068 604.075 527.868L604.075 529.428L604.179 529.368C605.582 526.218 607.868 522.918 611.401 520.878C614.623 519.018 617.429 519.498 618.676 522.258C620.546 517.518 623.82 513.708 626.782 511.998C631.666 509.178 636.706 510.048 636.706 517.668L636.706 536.148C636.706 537.948 636.031 539.298 634.836 539.988C633.641 540.678 632.965 540.108 632.965 538.308L632.965 520.728C632.965 513.708 629.64 514.308 626.73 515.988C623.716 517.728 620.391 522.528 620.391 527.988ZM643.567 544.787L643.567 505.067C643.567 503.267 644.243 501.917 645.438 501.227C646.633 500.537 647.308 501.107 647.308 502.907L647.308 504.887L647.464 504.797C649.127 500.717 651.881 497.507 655.102 495.647C663.053 491.057 667.002 496.097 667.002 505.097C667.002 513.137 663.208 523.607 655.206 528.227C651.985 530.087 649.595 529.907 647.464 527.957L647.308 528.047L647.308 542.627C647.308 544.427 646.633 545.777 645.438 546.467C644.242 547.157 643.567 546.587 643.567 544.787ZM647.256 516.497C647.256 522.317 649.283 528.047 655.102 524.687C660.922 521.327 662.949 513.257 662.949 507.437C662.949 501.617 660.922 495.887 655.102 499.247C649.283 502.607 647.256 510.677 647.256 516.497ZM672.44 507.417L672.44 488.397C672.44 486.597 673.116 485.247 674.311 484.557C675.506 483.867 676.181 484.437 676.181 486.237L676.181 504.177C676.181 509.637 678.727 511.047 682.936 508.617C687.145 506.187 689.691 501.837 689.691 496.377L689.691 478.437C689.691 476.637 690.367 475.287 691.562 474.597C692.757 473.907 693.433 474.477 693.433 476.277L693.433 495.297C693.433 502.197 688.86 508.797 682.936 512.217C677.013 515.637 672.44 514.317 672.44 507.417ZM707.833 465.203C713.237 462.083 717.706 462.143 717.602 464.483C717.602 465.443 717.29 466.763 715.731 467.663C714.276 468.503 712.353 466.193 708.612 468.353C706.014 469.853 703.208 472.913 703.208 475.973C703.208 477.413 703.884 478.523 705.754 478.283L711.418 477.653C715.159 477.233 718.329 477.503 718.329 482.543C718.329 488.183 713.964 494.303 708.145 497.663C702.117 501.143 698.168 499.403 698.168 497.363C698.168 496.703 698.999 494.783 699.935 494.243C701.701 493.223 703.416 496.793 708.3 493.973C711.886 491.903 714.276 488.063 714.276 485.063C714.276 482.243 712.457 482.153 710.431 482.363L703.988 483.023C701.182 483.323 699.155 482.573 699.155 478.613C699.155 473.393 703.624 467.633 707.833 465.203ZM743.404 444.666C748.808 441.546 753.277 441.606 753.173 443.946C753.173 444.906 752.861 446.226 751.302 447.126C749.847 447.966 747.925 445.656 744.184 447.816C741.586 449.316 738.78 452.376 738.78 455.436C738.78 456.876 739.455 457.986 741.326 457.746L746.99 457.116C750.731 456.696 753.9 456.966 753.9 462.006C753.9 467.646 749.536 473.766 743.716 477.126C737.688 480.606 733.739 478.866 733.739 476.826C733.739 476.166 734.571 474.246 735.506 473.706C737.273 472.686 738.987 476.256 743.872 473.436C747.457 471.366 749.847 467.526 749.847 464.526C749.847 461.706 748.029 461.616 746.002 461.826L739.559 462.486C736.753 462.786 734.727 462.036 734.727 458.076C734.727 452.856 739.195 447.096 743.404 444.666ZM763.635 436.946L763.635 462.866C763.635 464.666 762.959 466.016 761.764 466.706C760.569 467.396 759.893 466.826 759.893 465.026L759.893 439.106L757.451 440.516C756.204 441.236 755.84 440.366 755.84 439.646C755.84 438.926 756.204 437.636 757.451 436.916L759.893 435.506L759.893 428.486C759.893 426.626 760.569 425.276 761.764 424.586C762.959 423.896 763.635 424.466 763.635 426.326L763.635 433.346L766.077 431.936C767.324 431.216 767.688 432.086 767.688 432.806C767.688 433.526 767.324 434.816 766.077 435.536L763.635 436.946ZM789.731 422.659L789.731 420.679C789.731 418.879 790.407 417.529 791.602 416.839C792.797 416.149 793.473 416.719 793.473 418.519L793.473 445.639C793.473 447.439 792.797 448.789 791.602 449.479C790.407 450.169 789.731 449.599 789.731 447.799L789.731 445.819L789.576 445.909C787.913 449.989 785.159 453.199 781.937 455.059C773.987 459.649 770.038 454.609 770.038 445.609C770.038 437.569 773.831 427.099 781.833 422.479C785.055 420.619 787.445 420.799 789.576 422.749L789.731 422.659ZM774.091 443.269C774.091 449.089 776.118 454.819 781.937 451.459C787.757 448.099 789.731 440.059 789.731 434.239C789.731 428.419 787.757 422.659 781.937 426.019C776.273 429.289 774.091 437.449 774.091 443.269ZM810.81 434.429C814.188 432.479 815.383 430.109 816.422 429.509C817.098 429.119 817.981 429.329 817.981 430.349C817.981 432.989 814.5 436.259 810.81 438.389C803.016 442.889 798.911 436.979 798.911 428.939C798.911 420.899 803.432 410.009 811.278 405.479C814.811 403.439 818.137 403.079 818.137 404.879C818.137 406.259 817.513 407.639 816.059 408.479C815.071 409.049 814.188 407.759 810.81 409.709C805.51 412.769 802.964 421.139 802.964 426.239C802.964 432.959 805.926 437.249 810.81 434.429ZM827.144 413.359L827.144 426.199C827.144 427.999 826.468 429.349 825.273 430.039C824.078 430.729 823.403 430.159 823.403 428.359L823.403 387.199C823.403 385.399 824.078 384.049 825.273 383.359C826.468 382.669 827.144 383.239 827.144 385.039L827.144 407.959L838.316 391.069C839.251 389.629 839.718 389.059 840.238 388.759C841.069 388.279 841.797 388.699 841.797 389.719C841.797 390.739 841.433 391.489 840.706 392.569L829.482 409.069L841.901 415.879C842.888 416.389 843.304 416.869 843.304 417.829C843.304 418.849 842.576 420.049 841.797 420.499C840.654 421.159 839.978 420.889 838.471 420.019L827.144 413.359Z" fill="white"/>
<mask id="mask0_1_390" style="mask-type:alpha" maskUnits="userSpaceOnUse" x="74" y="93" width="800" height="462">
<path d="M845.005 283.525C883.665 305.846 883.665 342.035 845.005 364.355L544.001 538.14C505.34 560.46 442.66 560.46 403.999 538.14L253.497 451.247L102.995 364.355C64.3349 342.035 64.3349 305.846 102.995 283.525L403.999 109.74C442.66 87.4198 505.34 87.4198 544.001 109.74L694.503 196.633L845.005 283.525Z" fill="#44C9F6"/>
</mask>
<g mask="url(#mask0_1_390)">
<path d="M178 19.7946L1885.2 -833L2533 -102.795L825.8 750L178 19.7946Z" fill="white"/>
</g>
<path d="M345.288 422.007L286.606 388.127C282.033 385.487 281.843 382.077 285.844 379.767C289.845 377.457 295.751 377.567 300.324 380.207L318.995 390.987L319.186 390.877C318.519 387.192 322.615 383.397 326.902 380.922C337.667 374.707 352.528 374.047 364.15 380.757L390.442 395.937C395.015 398.577 395.205 401.987 391.204 404.297C387.203 406.607 381.297 406.497 376.724 403.857L352.813 390.052C346.431 386.367 339.381 386.917 334.428 389.777C328.807 393.022 329.76 397.202 335.095 400.282L359.005 414.087C363.578 416.727 363.769 420.137 359.768 422.447C355.767 424.757 349.86 424.647 345.288 422.007ZM376.026 352.561C390.505 344.201 413.273 345.686 427.182 353.716C441.471 361.966 443.757 374.616 428.992 383.141C414.226 391.666 392.315 390.346 378.026 382.096C364.118 374.066 361.546 360.921 376.026 352.561ZM388.6 359.821C381.074 364.166 385.171 370.381 391.744 374.176C398.317 377.971 408.986 380.171 416.417 375.881C423.847 371.591 420.037 365.431 413.464 361.636C406.891 357.841 396.126 355.476 388.6 359.821ZM461.635 355.604L417.147 343.339C413.432 342.294 411.241 341.579 409.24 340.424C406.192 338.664 406.573 335.584 410.574 333.274C413.908 331.349 418.481 331.239 422.482 332.669L456.586 343.229L456.776 343.119L439.153 323.704C436.485 320.954 436.104 318.534 440.105 316.224C444.106 313.914 448.298 314.134 453.061 315.674L486.689 325.849L486.879 325.739L468.589 306.049C466.112 303.739 466.303 301.099 469.637 299.174C473.638 296.864 478.973 296.644 483.164 299.064C484.688 299.944 485.546 301.209 486.975 302.804L508.314 328.654C510.886 331.789 511.457 334.869 506.98 337.454C502.788 339.874 497.93 339.929 492.69 338.334L463.54 329.644L463.35 329.754L478.401 346.584C481.164 349.609 481.068 352.414 476.877 354.834C472.399 357.419 467.065 357.089 461.635 355.604ZM551.879 286.891L522.633 303.776C530.35 307.131 539.114 305.701 545.497 302.016C552.546 297.946 551.879 291.951 555.499 289.861C558.452 288.156 564.073 288.321 567.026 290.026C572.932 293.436 566.454 303.776 556.261 309.661C540.829 318.571 519.299 318.021 504.152 309.276C490.244 301.246 487.672 288.101 502.152 279.741C517.013 271.161 540.352 273.306 551.784 279.906C555.88 282.271 556.071 284.471 551.879 286.891ZM513.202 298.661L535.018 286.066C528.254 283.041 519.966 282.656 513.584 286.341C507.487 289.861 508.058 294.921 513.202 298.661ZM576.086 248.495C579.23 250.31 579.802 253.39 576.563 255.26C573.991 256.745 564.75 257.46 560.273 260.045C557.796 261.475 556.748 263.4 559.415 264.94C565.798 268.625 588.661 254.325 604.284 263.345C613.429 268.625 612.667 277.095 600.855 283.915C593.138 288.37 577.325 292.44 571.133 288.865C569.037 287.655 567.132 284.135 570.942 281.935C576.277 278.855 583.326 280.175 589.804 276.435C593.996 274.015 593.9 272.53 591.328 271.045C585.041 267.415 562.178 281.715 546.46 272.64C536.933 267.14 538.172 258.945 549.032 252.675C555.795 248.77 569.323 244.59 576.086 248.495ZM620.363 263.192L588.735 244.932L585.687 246.692C581.972 248.837 577.399 248.837 573.684 246.692C570.254 244.712 570.254 241.742 573.684 239.762L576.732 238.002L568.54 233.272C563.967 230.632 563.777 227.222 567.778 224.912C571.779 222.602 577.685 222.712 582.258 225.352L590.45 230.082L594.356 227.827C597.881 225.792 602.549 224.967 606.931 227.497C611.217 229.972 609.884 232.722 606.359 234.757L602.453 237.012L634.081 255.272C638.653 257.912 638.844 261.322 634.843 263.632C630.842 265.942 624.935 265.832 620.363 263.192Z" fill="black"/>
<defs>
<filter id="filter0_d_1_390" x="54" y="445" width="840" height="537.867" filterUnits="userSpaceOnUse" color-interpolation-filters="sRGB">
<feFlood flood-opacity="0" result="BackgroundImageFix"/>
<feColorMatrix in="SourceAlpha" type="matrix" values="0 0 0 0 0 0 0 0 0 0 0 0 0 0 0 0 0 0 127 0" result="hardAlpha"/>
<feOffset dy="2"/>
<feGaussianBlur stdDeviation="10"/>
<feComposite in2="hardAlpha" operator="out"/>
<feColorMatrix type="matrix" values="0 0 0 0 0 0 0 0 0 0 0 0 0 0 0 0 0 0 1 0"/>
<feBlend mode="normal" in2="BackgroundImageFix" result="effect1_dropShadow_1_390"/>
<feBlend mode="normal" in="SourceGraphic" in2="effect1_dropShadow_1_390" result="shape"/>
</filter>
<filter id="filter1_d_1_390" x="54" y="345" width="840" height="577.867" filterUnits="userSpaceOnUse" color-interpolation-filters="sRGB">
<feFlood flood-opacity="0" result="BackgroundImageFix"/>
<feColorMatrix in="SourceAlpha" type="matrix" values="0 0 0 0 0 0 0 0 0 0 0 0 0 0 0 0 0 0 127 0" result="hardAlpha"/>
<feOffset dy="2"/>
<feGaussianBlur stdDeviation="10"/>
<feComposite in2="hardAlpha" operator="out"/>
<feColorMatrix type="matrix" values="0 0 0 0 0 0 0 0 0 0 0 0 0 0 0 0 0 0 1 0"/>
<feBlend mode="normal" in2="BackgroundImageFix" result="effect1_dropShadow_1_390"/>
<feBlend mode="normal" in="SourceGraphic" in2="effect1_dropShadow_1_390" result="shape"/>
</filter>
<filter id="filter2_d_1_390" x="54" y="235" width="840" height="587.867" filterUnits="userSpaceOnUse" color-interpolation-filters="sRGB">
<feFlood flood-opacity="0" result="BackgroundImageFix"/>
<feColorMatrix in="SourceAlpha" type="matrix" values="0 0 0 0 0 0 0 0 0 0 0 0 0 0 0 0 0 0 127 0" result="hardAlpha"/>
<feOffset dy="2"/>
<feGaussianBlur stdDeviation="10"/>
<feComposite in2="hardAlpha" operator="out"/>
<feColorMatrix type="matrix" values="0 0 0 0 0 0 0 0 0 0 0 0 0 0 0 0 0 0 1 0"/>
<feBlend mode="normal" in2="BackgroundImageFix" result="effect1_dropShadow_1_390"/>
<feBlend mode="normal" in="SourceGraphic" in2="effect1_dropShadow_1_390" result="shape"/>
</filter>
<filter id="filter3_d_1_390" x="54" y="175" width="840" height="537.867" filterUnits="userSpaceOnUse" color-interpolation-filters="sRGB">
<feFlood flood-opacity="0" result="BackgroundImageFix"/>
<feColorMatrix in="SourceAlpha" type="matrix" values="0 0 0 0 0 0 0 0 0 0 0 0 0 0 0 0 0 0 127 0" result="hardAlpha"/>
<feOffset dy="2"/>
<feGaussianBlur stdDeviation="10"/>
<feComposite in2="hardAlpha" operator="out"/>
<feColorMatrix type="matrix" values="0 0 0 0 0 0 0 0 0 0 0 0 0 0 0 0 0 0 1 0"/>
<feBlend mode="normal" in2="BackgroundImageFix" result="effect1_dropShadow_1_390"/>
<feBlend mode="normal" in="SourceGraphic" in2="effect1_dropShadow_1_390" result="shape"/>
</filter>
<filter id="filter4_d_1_390" x="54" y="75" width="840" height="577.867" filterUnits="userSpaceOnUse" color-interpolation-filters="sRGB">
<feFlood flood-opacity="0" result="BackgroundImageFix"/>
<feColorMatrix in="SourceAlpha" type="matrix" values="0 0 0 0 0 0 0 0 0 0 0 0 0 0 0 0 0 0 127 0" result="hardAlpha"/>
<feOffset dy="2"/>
<feGaussianBlur stdDeviation="10"/>
<feComposite in2="hardAlpha" operator="out"/>
<feColorMatrix type="matrix" values="0 0 0 0 0 0 0 0 0 0 0 0 0 0 0 0 0 0 1 0"/>
<feBlend mode="normal" in2="BackgroundImageFix" result="effect1_dropShadow_1_390"/>
<feBlend mode="normal" in="SourceGraphic" in2="effect1_dropShadow_1_390" result="shape"/>
</filter>
<linearGradient id="paint0_linear_1_390" x1="474" y1="689.512" x2="474" y2="960.867" gradientUnits="userSpaceOnUse">
<stop stop-color="#043749"/>
<stop offset="0.5" stop-color="#065C7A"/>
<stop offset="1" stop-color="#44C9F6"/>
</linearGradient>
<linearGradient id="paint1_linear_1_390" x1="474" y1="689.512" x2="474" y2="960.867" gradientUnits="userSpaceOnUse">
<stop stop-color="#043749"/>
<stop offset="0.5" stop-color="#065C7A"/>
<stop offset="1" stop-color="#44C9F6"/>
</linearGradient>
<linearGradient id="paint2_linear_1_390" x1="474" y1="689.512" x2="474" y2="960.867" gradientUnits="userSpaceOnUse">
<stop stop-color="#043749"/>
<stop offset="0.5" stop-color="#065C7A"/>
<stop offset="1" stop-color="#44C9F6"/>
</linearGradient>
<linearGradient id="paint3_linear_1_390" x1="474" y1="689.512" x2="474" y2="960.867" gradientUnits="userSpaceOnUse">
<stop stop-color="#043749"/>
<stop offset="0.5" stop-color="#065C7A"/>
<stop offset="1" stop-color="#44C9F6"/>
</linearGradient>
<linearGradient id="paint4_linear_1_390" x1="474" y1="689.512" x2="474" y2="960.867" gradientUnits="userSpaceOnUse">
<stop stop-color="#043749"/>
<stop offset="0.5" stop-color="#065C7A"/>
<stop offset="1" stop-color="#44C9F6"/>
</linearGradient>
<linearGradient id="paint5_linear_1_390" x1="474" y1="689.512" x2="474" y2="960.867" gradientUnits="userSpaceOnUse">
<stop stop-color="#043749"/>
<stop offset="0.5" stop-color="#065C7A"/>
<stop offset="1" stop-color="#44C9F6"/>
</linearGradient>
<linearGradient id="paint6_linear_1_390" x1="474" y1="689.512" x2="474" y2="960.867" gradientUnits="userSpaceOnUse">
<stop stop-color="#043749"/>
<stop offset="0.5" stop-color="#065C7A"/>
<stop offset="1" stop-color="#44C9F6"/>
</linearGradient>
<linearGradient id="paint7_linear_1_390" x1="474" y1="594" x2="474" y2="900.867" gradientUnits="userSpaceOnUse">
<stop stop-color="#043749"/>
<stop offset="0.5" stop-color="#065C7A"/>
<stop offset="1" stop-color="#44C9F6"/>
</linearGradient>
<linearGradient id="paint8_linear_1_390" x1="474" y1="594" x2="474" y2="900.867" gradientUnits="userSpaceOnUse">
<stop stop-color="#043749"/>
<stop offset="0.5" stop-color="#065C7A"/>
<stop offset="1" stop-color="#44C9F6"/>
</linearGradient>
<linearGradient id="paint9_linear_1_390" x1="474" y1="594" x2="474" y2="900.867" gradientUnits="userSpaceOnUse">
<stop stop-color="#043749"/>
<stop offset="0.5" stop-color="#065C7A"/>
<stop offset="1" stop-color="#44C9F6"/>
</linearGradient>
<linearGradient id="paint10_linear_1_390" x1="474" y1="594" x2="474" y2="900.867" gradientUnits="userSpaceOnUse">
<stop stop-color="#043749"/>
<stop offset="0.5" stop-color="#065C7A"/>
<stop offset="1" stop-color="#44C9F6"/>
</linearGradient>
<linearGradient id="paint11_linear_1_390" x1="474" y1="594" x2="474" y2="900.867" gradientUnits="userSpaceOnUse">
<stop stop-color="#043749"/>
<stop offset="0.5" stop-color="#065C7A"/>
<stop offset="1" stop-color="#44C9F6"/>
</linearGradient>
<linearGradient id="paint12_linear_1_390" x1="474" y1="594" x2="474" y2="900.867" gradientUnits="userSpaceOnUse">
<stop stop-color="#043749"/>
<stop offset="0.5" stop-color="#065C7A"/>
<stop offset="1" stop-color="#44C9F6"/>
</linearGradient>
<linearGradient id="paint13_linear_1_390" x1="474" y1="594" x2="474" y2="900.867" gradientUnits="userSpaceOnUse">
<stop stop-color="#043749"/>
<stop offset="0.5" stop-color="#065C7A"/>
<stop offset="1" stop-color="#44C9F6"/>
</linearGradient>
<linearGradient id="paint14_linear_1_390" x1="474" y1="324" x2="474" y2="630.867" gradientUnits="userSpaceOnUse">
<stop stop-color="#043749"/>
<stop offset="0.5" stop-color="#065C7A"/>
<stop offset="1" stop-color="#44C9F6"/>
</linearGradient>
<linearGradient id="paint15_linear_1_390" x1="474" y1="324" x2="474" y2="630.867" gradientUnits="userSpaceOnUse">
<stop stop-color="#043749"/>
<stop offset="0.5" stop-color="#065C7A"/>
<stop offset="1" stop-color="#44C9F6"/>
</linearGradient>
<linearGradient id="paint16_linear_1_390" x1="474" y1="324" x2="474" y2="630.867" gradientUnits="userSpaceOnUse">
<stop stop-color="#043749"/>
<stop offset="0.5" stop-color="#065C7A"/>
<stop offset="1" stop-color="#44C9F6"/>
</linearGradient>
<linearGradient id="paint17_linear_1_390" x1="474" y1="324" x2="474" y2="630.867" gradientUnits="userSpaceOnUse">
<stop stop-color="#043749"/>
<stop offset="0.5" stop-color="#065C7A"/>
<stop offset="1" stop-color="#44C9F6"/>
</linearGradient>
<linearGradient id="paint18_linear_1_390" x1="474" y1="324" x2="474" y2="630.867" gradientUnits="userSpaceOnUse">
<stop stop-color="#043749"/>
<stop offset="0.5" stop-color="#065C7A"/>
<stop offset="1" stop-color="#44C9F6"/>
</linearGradient>
<linearGradient id="paint19_linear_1_390" x1="474" y1="324" x2="474" y2="630.867" gradientUnits="userSpaceOnUse">
<stop stop-color="#043749"/>
<stop offset="0.5" stop-color="#065C7A"/>
<stop offset="1" stop-color="#44C9F6"/>
</linearGradient>
<linearGradient id="paint20_linear_1_390" x1="474" y1="324" x2="474" y2="630.867" gradientUnits="userSpaceOnUse">
<stop stop-color="#043749"/>
<stop offset="0.5" stop-color="#065C7A"/>
<stop offset="1" stop-color="#44C9F6"/>
</linearGradient>
</defs>
</svg>
